
	<!DOCTYPE svg PUBLIC "-//W3C//DTD SVG 1.1//EN" "http://www.w3.org/Graphics/SVG/1.1/DTD/svg11.dtd">
	<svg width="100" height="100"
     xmlns="http://www.w3.org/2000/svg" version="1.1"><path d=" M 22 60 L 22 59 L 23 59 L 23 60z" style="stroke: black;fill:none;"/><path d=" M 22 59 L 22 60 L 23 60 L 23 59z" style="stroke: black;fill:none;"/><path d=" M 24 16 L 24 17 L 25 17 L 25 16z" style="stroke: black;fill:none;"/><path d=" M 24 21 L 24 22 L 25 22 L 25 21z" style="stroke: black;fill:none;"/><path d=" M 24 27 L 24 28 L 25 28 L 25 27z" style="stroke: black;fill:none;"/><path d=" M 24 28 L 24 29 L 24 30 L 24 31 L 25 31 L 25 30 L 25 29 L 25 28z" style="stroke: black;fill:none;"/><path d=" M 24 31 L 24 32 L 25 32 L 25 31z" style="stroke: black;fill:none;"/><path d=" M 24 56 L 24 57 L 25 57 L 25 56z" style="stroke: black;fill:none;"/><path d=" M 25 23 L 25 24 L 25 25 L 26 25 L 26 24 L 26 23z" style="stroke: black;fill:none;"/><path d=" M 25 33 L 25 34 L 26 34 L 26 33z" style="stroke: black;fill:none;"/><path d=" M 26 34 L 26 35 L 27 35 L 27 34z" style="stroke: black;fill:none;"/><path d=" M 26 35 L 26 36 L 27 36 L 27 35z" style="stroke: black;fill:none;"/><path d=" M 25 55 L 25 56 L 26 56 L 26 55z" style="stroke: black;fill:none;"/><path d=" M 26 55 L 26 56 L 27 56 L 27 55z" style="stroke: black;fill:none;"/><path d=" M 26 12 L 26 13 L 27 13 L 27 12z" style="stroke: black;fill:none;"/><path d=" M 27 35 L 27 36 L 28 36 L 28 35z" style="stroke: black;fill:none;"/><path d=" M 27 36 L 27 37 L 28 37 L 28 36z" style="stroke: black;fill:none;"/><path d=" M 27 11 L 27 12 L 28 12 L 28 11z" style="stroke: black;fill:none;"/><path d=" M 27 17 L 27 18 L 28 18 L 28 17z" style="stroke: black;fill:none;"/><path d=" M 28 17 L 28 18 L 28 19 L 27 19 L 27 18 L 28 18z" style="stroke: black;fill:none;"/><path d=" M 27 40 L 27 41 L 28 41 L 28 40z" style="stroke: black;fill:none;"/><path d=" M 27 41 L 27 42 L 28 42 L 28 41z" style="stroke: black;fill:none;"/><path d=" M 27 42 L 27 43 L 28 43 L 29 43 L 29 42 L 28 42z" style="stroke: black;fill:none;"/><path d=" M 27 54 L 27 55 L 28 55 L 28 54z" style="stroke: black;fill:none;"/><path d=" M 28 54 L 28 55 L 29 55 L 29 54z" style="stroke: black;fill:none;"/><path d=" M 28 16 L 28 17 L 29 17 L 29 16z" style="stroke: black;fill:none;"/><path d=" M 29 15 L 29 16 L 30 16 L 30 15z" style="stroke: black;fill:none;"/><path d=" M 29 44 L 29 45 L 30 45 L 30 44z" style="stroke: black;fill:none;"/><path d=" M 29 53 L 29 54 L 30 54 L 30 53z" style="stroke: black;fill:none;"/><path d=" M 30 13 L 30 14 L 31 14 L 31 13z" style="stroke: black;fill:none;"/><path d=" M 30 46 L 30 47 L 31 47 L 31 46z" style="stroke: black;fill:none;"/><path d=" M 30 52 L 30 53 L 31 53 L 31 52z" style="stroke: black;fill:none;"/><path d=" M 31 12 L 31 13 L 32 13 L 32 12z" style="stroke: black;fill:none;"/><path d=" M 32 47 L 31 47 L 31 48 L 32 48z" style="stroke: black;fill:none;"/><path d=" M 31 51 L 31 52 L 32 52 L 32 51z" style="stroke: black;fill:none;"/><path d=" M 33 10 L 33 11 L 34 11 L 34 10z" style="stroke: black;fill:none;"/><path d=" M 32 11 L 32 12 L 33 12 L 33 11z" style="stroke: black;fill:none;"/><path d=" M 32 50 L 32 51 L 33 51 L 33 50z" style="stroke: black;fill:none;"/><path d=" M 34 10 L 34 11 L 35 11 L 35 10z" style="stroke: black;fill:none;"/><path d=" M 34 48 L 34 49 L 35 49 L 35 48z" style="stroke: black;fill:none;"/><path d=" M 34 9 L 34 10 L 35 10 L 35 9z" style="stroke: black;fill:none;"/><path d=" M 35 9 L 35 10 L 36 10 L 36 9z" style="stroke: black;fill:none;"/><path d=" M 36 8 L 36 9 L 37 9 L 37 8z" style="stroke: black;fill:none;"/><path d=" M 37 8 L 37 9 L 38 9 L 38 8z" style="stroke: black;fill:none;"/><path d=" M 38 21 L 38 22 L 39 22 L 39 21z" style="stroke: black;fill:none;"/><path d=" M 37 38 L 37 39 L 38 39 L 38 38z" style="stroke: black;fill:none;"/><path d=" M 38 38 L 38 39 L 38 40 L 39 40 L 39 41 L 39 42 L 39 43 L 39 44 L 38 44 L 38 43 L 39 43 L 39 42 L 39 41 L 38 41 L 38 40 L 38 39z" style="stroke: black;fill:none;"/><path d=" M 38 43 L 38 44 L 39 44 L 39 43z" style="stroke: black;fill:none;"/><path d=" M 38 7 L 38 8 L 39 8 L 39 7z" style="stroke: black;fill:none;"/><path d=" M 39 7 L 39 8 L 40 8 L 40 7z" style="stroke: black;fill:none;"/><path d=" M 39 20 L 39 21 L 40 21 L 41 21 L 41 20 L 41 19 L 40 19 L 40 18 L 41 18 L 42 18 L 42 19 L 43 19 L 44 19 L 45 19 L 45 20 L 45 21 L 46 21 L 46 22 L 46 23 L 46 24 L 46 25 L 45 25 L 44 25 L 43 25 L 42 25 L 42 24 L 41 24 L 41 23 L 41 22 L 42 22 L 42 21 L 41 21 L 41 20 L 41 19 L 40 19 L 40 20z" style="stroke: black;fill:none;"/><path d=" M 39 21 L 39 22 L 40 22 L 40 21z" style="stroke: black;fill:none;"/><path d=" M 40 6 L 40 7 L 41 7 L 41 6z" style="stroke: black;fill:none;"/><path d=" M 40 56 L 40 57 L 41 57 L 41 56z" style="stroke: black;fill:none;"/><path d=" M 41 5 L 41 6 L 42 6 L 42 5z" style="stroke: black;fill:none;"/><path d=" M 42 20 L 43 20 L 44 20 L 45 20 L 45 21 L 45 22 L 46 22 L 46 23 L 46 24 L 45 24 L 44 24 L 44 23 L 43 23 L 43 22 L 42 22 L 42 21 L 43 21 L 44 21 L 44 20 L 43 20z" style="stroke: black;fill:none;"/><path d=" M 42 4 L 42 5 L 43 5 L 43 4z" style="stroke: black;fill:none;"/><path d=" M 43 4 L 43 5 L 44 5 L 44 4z" style="stroke: black;fill:none;"/><path d=" M 43 21 L 43 22 L 43 23 L 44 23 L 44 22 L 44 21z" style="stroke: black;fill:none;"/><path d=" M 44 3 L 44 4 L 45 4 L 45 3z" style="stroke: black;fill:none;"/><path d=" M 45 3 L 45 4 L 46 4 L 46 3z" style="stroke: black;fill:none;"/><path d=" M 45 16 L 45 17 L 46 17 L 46 16z" style="stroke: black;fill:none;"/><path d=" M 44 61 L 44 62 L 45 62 L 45 61z" style="stroke: black;fill:none;"/><path d=" M 46 14 L 46 15 L 46 16 L 47 16 L 47 15 L 47 14z" style="stroke: black;fill:none;"/><path d=" M 45 32 L 45 33 L 46 33 L 46 34 L 47 34 L 47 35 L 48 35 L 49 35 L 50 35 L 51 35 L 52 35 L 53 35 L 53 34 L 53 33 L 53 32 L 52 32 L 51 32 L 50 32 L 49 32 L 48 32 L 47 32 L 46 32z" style="stroke: black;fill:none;"/><path d=" M 46 32 L 45 32 L 45 33 L 46 33 L 46 34 L 47 34 L 47 35 L 48 35 L 49 35 L 50 35 L 51 35 L 52 35 L 53 35 L 53 34 L 53 33 L 53 32 L 52 32 L 51 32 L 50 32 L 49 32 L 48 32 L 47 32z" style="stroke: black;fill:none;"/><path d=" M 47 16 L 47 17 L 47 18 L 48 18 L 48 17 L 48 16z" style="stroke: black;fill:none;"/><path d=" M 48 66 L 48 67 L 49 67 L 49 66z" style="stroke: black;fill:none;"/><path d=" M 52 42 L 53 42 L 53 41 L 52 41z" style="stroke: black;fill:none;"/><path d=" M 51 44 L 51 45 L 51 46 L 52 46 L 52 47 L 53 47 L 53 48 L 53 49 L 54 49 L 55 49 L 55 50 L 56 50 L 56 51 L 56 52 L 57 52 L 57 53 L 58 53 L 58 54 L 59 54 L 59 55 L 60 55 L 60 56 L 60 57 L 61 57 L 61 58 L 62 58 L 62 59 L 62 60 L 62 61 L 63 61 L 63 62 L 63 63 L 64 63 L 64 64 L 63 64 L 63 63 L 63 62 L 63 61 L 62 61 L 62 60 L 62 59 L 61 59 L 61 58 L 61 57 L 60 57 L 60 56 L 59 56 L 59 55 L 58 55 L 58 54 L 58 53 L 57 53 L 57 52 L 56 52 L 56 51 L 55 51 L 55 50 L 54 50 L 54 49 L 53 49 L 53 48 L 52 48 L 52 47 L 51 47 L 51 46 L 51 45z" style="stroke: black;fill:none;"/><path d=" M 52 44 L 52 45 L 53 45 L 53 44z" style="stroke: black;fill:none;"/><path d=" M 51 46 L 51 47 L 52 47 L 52 46z" style="stroke: black;fill:none;"/><path d=" M 52 47 L 52 48 L 53 48 L 53 47z" style="stroke: black;fill:none;"/><path d=" M 53 20 L 53 21 L 54 21 L 55 21 L 56 21 L 56 22 L 56 23 L 56 24 L 55 24 L 55 23 L 54 23 L 54 22 L 54 21 L 53 21z" style="stroke: black;fill:none;"/><path d=" M 52 21 L 52 22 L 53 22 L 53 21z" style="stroke: black;fill:none;"/><path d=" M 52 22 L 52 23 L 52 24 L 53 24 L 53 23 L 53 22z" style="stroke: black;fill:none;"/><path d=" M 53 24 L 53 25 L 54 25 L 55 25 L 55 24 L 54 24 L 54 23 L 53 23z" style="stroke: black;fill:none;"/><path d=" M 52 41 L 52 42 L 53 42 L 53 41z" style="stroke: black;fill:none;"/><path d=" M 53 41 L 54 41 L 54 40 L 53 40z" style="stroke: black;fill:none;"/><path d=" M 52 73 L 52 74 L 53 74 L 53 73z" style="stroke: black;fill:none;"/><path d=" M 54 23 L 54 24 L 55 24 L 55 23z" style="stroke: black;fill:none;"/><path d=" M 53 40 L 53 41 L 54 41 L 54 40z" style="stroke: black;fill:none;"/><path d=" M 54 49 L 54 50 L 55 50 L 55 49z" style="stroke: black;fill:none;"/><path d=" M 55 21 L 55 22 L 56 22 L 56 21z" style="stroke: black;fill:none;"/><path d=" M 54 37 L 54 38 L 55 38 L 55 37z" style="stroke: black;fill:none;"/><path d=" M 55 37 L 54 37 L 54 38 L 55 38z" style="stroke: black;fill:none;"/><path d=" M 54 38 L 54 39 L 55 39 L 55 38z" style="stroke: black;fill:none;"/><path d=" M 54 42 L 54 43 L 55 43 L 55 42z" style="stroke: black;fill:none;"/><path d=" M 55 42 L 55 43 L 56 43 L 56 42z" style="stroke: black;fill:none;"/><path d=" M 54 43 L 54 44 L 55 44 L 55 43z" style="stroke: black;fill:none;"/><path d=" M 55 50 L 55 51 L 56 51 L 56 50z" style="stroke: black;fill:none;"/><path d=" M 55 35 L 55 36 L 56 36 L 56 35z" style="stroke: black;fill:none;"/><path d=" M 55 36 L 55 37 L 56 37 L 56 36z" style="stroke: black;fill:none;"/><path d=" M 55 41 L 55 42 L 56 42 L 56 41z" style="stroke: black;fill:none;"/><path d=" M 56 41 L 56 42 L 57 42 L 57 41z" style="stroke: black;fill:none;"/><path d=" M 57 11 L 57 12 L 58 12 L 58 11z" style="stroke: black;fill:none;"/><path d=" M 58 11 L 58 12 L 58 13 L 58 14 L 59 14 L 59 15 L 59 16 L 60 16 L 60 17 L 61 17 L 61 18 L 61 19 L 61 20 L 61 21 L 61 22 L 60 22 L 60 21 L 60 20 L 60 19 L 60 18 L 60 17 L 59 17 L 59 16 L 58 16 L 58 15 L 57 15 L 57 14 L 57 13 L 57 12 L 58 12z" style="stroke: black;fill:none;"/><path d=" M 57 13 L 57 14 L 58 14 L 58 13z" style="stroke: black;fill:none;"/><path d=" M 57 27 L 57 28 L 58 28 L 58 27z" style="stroke: black;fill:none;"/><path d=" M 57 40 L 57 41 L 58 41 L 58 40z" style="stroke: black;fill:none;"/><path d=" M 58 25 L 58 26 L 59 26 L 59 25z" style="stroke: black;fill:none;"/><path d=" M 59 25 L 59 26 L 59 27 L 58 27 L 58 26 L 59 26z" style="stroke: black;fill:none;"/><path d=" M 58 38 L 58 39 L 59 39 L 59 38z" style="stroke: black;fill:none;"/><path d=" M 59 38 L 59 39 L 59 40 L 58 40 L 58 39 L 59 39z" style="stroke: black;fill:none;"/><path d=" M 58 54 L 58 55 L 59 55 L 59 54z" style="stroke: black;fill:none;"/><path d=" M 59 55 L 59 56 L 60 56 L 60 55z" style="stroke: black;fill:none;"/><path d=" M 59 23 L 59 24 L 60 24 L 60 23z" style="stroke: black;fill:none;"/><path d=" M 61 58 L 61 59 L 62 59 L 62 58z" style="stroke: black;fill:none;"/><path d=" M 63 63 L 63 64 L 64 64 L 64 63z" style="stroke: black;fill:none;"/><path d=" M 65 49 L 65 50 L 66 50 L 66 49z" style="stroke: black;fill:none;"/><path d=" M 66 50 L 66 51 L 67 51 L 67 50z" style="stroke: black;fill:none;"/><path d=" M 68 53 L 68 54 L 69 54 L 69 53z" style="stroke: black;fill:none;"/></svg>