
	<!DOCTYPE svg PUBLIC "-//W3C//DTD SVG 1.1//EN" "http://www.w3.org/Graphics/SVG/1.1/DTD/svg11.dtd">
	<svg width="100" height="100"
     xmlns="http://www.w3.org/2000/svg" version="1.1"><path d=" M 18 65 L 18 66 L 19 66 L 19 65z" style="stroke: black;fill:none;"/><path d=" M 19 62 L 19 63 L 20 63 L 20 62z" style="stroke: black;fill:none;"/><path d=" M 20 60 L 20 61 L 21 61 L 21 60z" style="stroke: black;fill:none;"/><path d=" M 21 60 L 21 61 L 22 61 L 22 60z" style="stroke: black;fill:none;"/><path d=" M 20 61 L 20 62 L 21 62 L 21 61z" style="stroke: black;fill:none;"/><path d=" M 22 59 L 22 60 L 23 60 L 23 59z" style="stroke: black;fill:none;"/><path d=" M 23 59 L 23 60 L 24 60 L 24 59z" style="stroke: black;fill:none;"/><path d=" M 23 58 L 23 59 L 24 59 L 24 58z" style="stroke: black;fill:none;"/><path d=" M 24 15 L 24 16 L 25 16 L 25 15z" style="stroke: black;fill:none;"/><path d=" M 25 15 L 25 16 L 25 17 L 24 17 L 24 16 L 25 16z" style="stroke: black;fill:none;"/><path d=" M 24 21 L 24 22 L 25 22 L 25 21z" style="stroke: black;fill:none;"/><path d=" M 24 22 L 24 23 L 25 23 L 25 22z" style="stroke: black;fill:none;"/><path d=" M 25 23 L 25 24 L 26 24 L 26 23z" style="stroke: black;fill:none;"/><path d=" M 24 26 L 24 27 L 25 27 L 25 26z" style="stroke: black;fill:none;"/><path d=" M 25 26 L 25 27 L 26 27 L 26 26z" style="stroke: black;fill:none;"/><path d=" M 24 27 L 24 28 L 25 28 L 25 27z" style="stroke: black;fill:none;"/><path d=" M 24 28 L 24 29 L 25 29 L 25 28z" style="stroke: black;fill:none;"/><path d=" M 24 29 L 24 30 L 25 30 L 25 29z" style="stroke: black;fill:none;"/><path d=" M 24 30 L 24 31 L 25 31 L 25 30z" style="stroke: black;fill:none;"/><path d=" M 24 31 L 24 32 L 25 32 L 25 31z" style="stroke: black;fill:none;"/><path d=" M 24 32 L 24 33 L 25 33 L 25 32z" style="stroke: black;fill:none;"/><path d=" M 25 32 L 25 33 L 26 33 L 26 32z" style="stroke: black;fill:none;"/><path d=" M 25 33 L 25 34 L 26 34 L 26 33z" style="stroke: black;fill:none;"/><path d=" M 24 56 L 24 57 L 25 57 L 25 56z" style="stroke: black;fill:none;"/><path d=" M 25 13 L 25 14 L 26 14 L 26 13z" style="stroke: black;fill:none;"/><path d=" M 26 13 L 26 14 L 26 15 L 25 15 L 25 14 L 26 14z" style="stroke: black;fill:none;"/><path d=" M 26 23 L 26 24 L 26 25 L 27 25 L 27 24 L 27 23 L 27 22 L 26 22z" style="stroke: black;fill:none;"/><path d=" M 25 24 L 25 25 L 26 25 L 26 24z" style="stroke: black;fill:none;"/><path d=" M 25 25 L 25 26 L 26 26 L 26 25z" style="stroke: black;fill:none;"/><path d=" M 25 34 L 25 35 L 26 35 L 26 34z" style="stroke: black;fill:none;"/><path d=" M 26 34 L 26 35 L 27 35 L 27 34z" style="stroke: black;fill:none;"/><path d=" M 26 35 L 26 36 L 27 36 L 27 35z" style="stroke: black;fill:none;"/><path d=" M 25 55 L 25 56 L 26 56 L 26 55z" style="stroke: black;fill:none;"/><path d=" M 26 55 L 26 56 L 27 56 L 27 55z" style="stroke: black;fill:none;"/><path d=" M 26 12 L 26 13 L 27 13 L 27 12z" style="stroke: black;fill:none;"/><path d=" M 27 35 L 27 36 L 28 36 L 28 35z" style="stroke: black;fill:none;"/><path d=" M 27 36 L 27 37 L 28 37 L 28 36z" style="stroke: black;fill:none;"/><path d=" M 27 11 L 27 12 L 28 12 L 28 11z" style="stroke: black;fill:none;"/><path d=" M 27 37 L 27 38 L 28 38 L 28 37z" style="stroke: black;fill:none;"/><path d=" M 27 54 L 27 55 L 28 55 L 28 54z" style="stroke: black;fill:none;"/><path d=" M 28 54 L 28 55 L 29 55 L 29 54z" style="stroke: black;fill:none;"/><path d=" M 28 53 L 28 54 L 29 54 L 29 53z" style="stroke: black;fill:none;"/><path d=" M 29 53 L 29 54 L 30 54 L 30 53z" style="stroke: black;fill:none;"/><path d=" M 29 54 L 29 55 L 30 55 L 30 54z" style="stroke: black;fill:none;"/><path d=" M 30 53 L 30 54 L 31 54 L 31 53z" style="stroke: black;fill:none;"/><path d=" M 30 52 L 30 53 L 31 53 L 31 52z" style="stroke: black;fill:none;"/><path d=" M 31 52 L 31 53 L 32 53 L 32 52z" style="stroke: black;fill:none;"/><path d=" M 32 27 L 33 27 L 33 26 L 32 26z" style="stroke: black;fill:none;"/><path d=" M 31 51 L 31 52 L 32 52 L 32 51z" style="stroke: black;fill:none;"/><path d=" M 33 26 L 33 27 L 33 28 L 33 29 L 33 30 L 33 31 L 34 31 L 34 32 L 35 32 L 35 33 L 36 33 L 37 33 L 38 33 L 38 34 L 37 34 L 37 33 L 36 33 L 35 33 L 35 32 L 34 32 L 34 31 L 33 31 L 33 30 L 32 30 L 32 29 L 33 29 L 33 28 L 33 27z" style="stroke: black;fill:none;"/><path d=" M 32 50 L 32 51 L 33 51 L 33 50z" style="stroke: black;fill:none;"/><path d=" M 34 10 L 34 11 L 35 11 L 35 10z" style="stroke: black;fill:none;"/><path d=" M 34 48 L 33 48 L 33 49 L 34 49z" style="stroke: black;fill:none;"/><path d=" M 33 49 L 33 50 L 34 50 L 34 49z" style="stroke: black;fill:none;"/><path d=" M 34 49 L 34 50 L 35 50 L 35 49z" style="stroke: black;fill:none;"/><path d=" M 35 49 L 34 49 L 34 48 L 35 48z" style="stroke: black;fill:none;"/><path d=" M 35 66 L 35 67 L 36 67 L 36 66z" style="stroke: black;fill:none;"/><path d=" M 36 9 L 36 10 L 37 10 L 37 9z" style="stroke: black;fill:none;"/><path d=" M 35 28 L 35 29 L 36 29 L 36 28z" style="stroke: black;fill:none;"/><path d=" M 36 49 L 37 49 L 38 49 L 38 48 L 39 48 L 39 49 L 38 49 L 37 49z" style="stroke: black;fill:none;"/><path d=" M 37 69 L 37 70 L 38 70 L 38 69z" style="stroke: black;fill:none;"/><path d=" M 38 8 L 38 9 L 39 9 L 39 8z" style="stroke: black;fill:none;"/><path d=" M 38 21 L 38 22 L 39 22 L 39 21z" style="stroke: black;fill:none;"/><path d=" M 38 52 L 38 53 L 39 53 L 39 52z" style="stroke: black;fill:none;"/><path d=" M 39 7 L 39 8 L 40 8 L 40 7z" style="stroke: black;fill:none;"/><path d=" M 39 20 L 39 21 L 40 21 L 40 20z" style="stroke: black;fill:none;"/><path d=" M 39 21 L 39 22 L 40 22 L 40 21z" style="stroke: black;fill:none;"/><path d=" M 40 19 L 40 20 L 40 21 L 41 21 L 41 20 L 41 19z" style="stroke: black;fill:none;"/><path d=" M 42 19 L 42 20 L 43 20 L 43 19z" style="stroke: black;fill:none;"/><path d=" M 42 21 L 42 22 L 43 22 L 43 21z" style="stroke: black;fill:none;"/><path d=" M 41 22 L 41 23 L 41 24 L 42 24 L 43 24 L 43 23 L 43 22 L 42 22z" style="stroke: black;fill:none;"/><path d=" M 43 21 L 43 22 L 44 22 L 44 21z" style="stroke: black;fill:none;"/><path d=" M 43 22 L 43 23 L 44 23 L 44 22z" style="stroke: black;fill:none;"/><path d=" M 43 24 L 42 24 L 42 25 L 43 25 L 44 25 L 45 25 L 45 24 L 44 24 L 44 23 L 43 23z" style="stroke: black;fill:none;"/><path d=" M 44 20 L 44 21 L 45 21 L 45 20z" style="stroke: black;fill:none;"/><path d=" M 43 60 L 43 61 L 44 61 L 44 60z" style="stroke: black;fill:none;"/><path d=" M 44 61 L 44 62 L 45 62 L 45 61z" style="stroke: black;fill:none;"/><path d=" M 45 20 L 45 21 L 46 21 L 46 20z" style="stroke: black;fill:none;"/><path d=" M 45 21 L 45 22 L 46 22 L 46 21z" style="stroke: black;fill:none;"/><path d=" M 45 31 L 45 32 L 46 32 L 47 32 L 48 32 L 49 32 L 50 32 L 51 32 L 52 32 L 53 32 L 53 31 L 52 31 L 51 31 L 50 31 L 49 31 L 48 31 L 47 31 L 46 31z" style="stroke: black;fill:none;"/><path d=" M 46 31 L 45 31 L 45 32 L 46 32 L 47 32 L 48 32 L 49 32 L 50 32 L 51 32 L 52 32 L 53 32 L 53 31 L 52 31 L 51 31 L 50 31 L 49 31 L 48 31 L 47 31z" style="stroke: black;fill:none;"/><path d=" M 45 33 L 45 34 L 46 34 L 46 33z" style="stroke: black;fill:none;"/><path d=" M 48 34 L 47 34 L 47 35 L 48 35z" style="stroke: black;fill:none;"/><path d=" M 47 65 L 47 66 L 48 66 L 48 65z" style="stroke: black;fill:none;"/><path d=" M 48 66 L 48 67 L 49 67 L 49 66z" style="stroke: black;fill:none;"/><path d=" M 49 67 L 49 68 L 50 68 L 50 67z" style="stroke: black;fill:none;"/><path d=" M 50 18 L 49 18 L 49 17 L 50 17z" style="stroke: black;fill:none;"/><path d=" M 49 68 L 49 69 L 50 69 L 50 68z" style="stroke: black;fill:none;"/><path d=" M 50 69 L 50 70 L 51 70 L 51 69z" style="stroke: black;fill:none;"/><path d=" M 51 3 L 50 3 L 50 4 L 51 4z" style="stroke: black;fill:none;"/><path d=" M 50 28 L 50 29 L 51 29 L 51 28z" style="stroke: black;fill:none;"/><path d=" M 51 28 L 50 28 L 50 29 L 51 29z" style="stroke: black;fill:none;"/><path d=" M 51 42 L 51 43 L 51 44 L 52 44 L 52 43 L 52 42z" style="stroke: black;fill:none;"/><path d=" M 52 16 L 52 17 L 53 17 L 53 16z" style="stroke: black;fill:none;"/><path d=" M 52 17 L 52 18 L 53 18 L 53 19 L 54 19 L 54 18 L 54 17 L 53 17z" style="stroke: black;fill:none;"/><path d=" M 51 21 L 51 22 L 52 22 L 52 21z" style="stroke: black;fill:none;"/><path d=" M 52 21 L 51 21 L 51 22 L 52 22z" style="stroke: black;fill:none;"/><path d=" M 52 22 L 52 23 L 52 24 L 53 24 L 53 23 L 53 22z" style="stroke: black;fill:none;"/><path d=" M 51 46 L 51 47 L 52 47 L 52 46z" style="stroke: black;fill:none;"/><path d=" M 52 46 L 52 47 L 53 47 L 53 46z" style="stroke: black;fill:none;"/><path d=" M 52 47 L 52 48 L 53 48 L 53 47z" style="stroke: black;fill:none;"/><path d=" M 51 71 L 51 72 L 52 72 L 52 71z" style="stroke: black;fill:none;"/><path d=" M 53 22 L 52 22 L 52 23 L 52 24 L 53 24 L 53 23z" style="stroke: black;fill:none;"/><path d=" M 52 34 L 52 35 L 53 35 L 53 34z" style="stroke: black;fill:none;"/><path d=" M 52 41 L 52 42 L 53 42 L 53 41z" style="stroke: black;fill:none;"/><path d=" M 53 44 L 52 44 L 52 45 L 53 45z" style="stroke: black;fill:none;"/><path d=" M 53 48 L 53 49 L 54 49 L 54 48z" style="stroke: black;fill:none;"/><path d=" M 52 73 L 52 74 L 53 74 L 53 73z" style="stroke: black;fill:none;"/><path d=" M 52 74 L 52 75 L 53 75 L 53 74z" style="stroke: black;fill:none;"/><path d=" M 54 21 L 54 22 L 55 22 L 55 21z" style="stroke: black;fill:none;"/><path d=" M 54 23 L 54 24 L 55 24 L 55 23z" style="stroke: black;fill:none;"/><path d=" M 53 40 L 53 41 L 54 41 L 54 40z" style="stroke: black;fill:none;"/><path d=" M 54 43 L 54 44 L 55 44 L 55 43z" style="stroke: black;fill:none;"/><path d=" M 54 44 L 53 44 L 53 45 L 54 45z" style="stroke: black;fill:none;"/><path d=" M 54 48 L 54 49 L 55 49 L 55 48z" style="stroke: black;fill:none;"/><path d=" M 54 49 L 54 50 L 55 50 L 55 49z" style="stroke: black;fill:none;"/><path d=" M 55 18 L 55 19 L 56 19 L 56 20 L 57 20 L 57 21 L 57 22 L 57 23 L 57 24 L 57 25 L 57 26 L 57 27 L 58 27 L 58 26 L 58 25 L 58 24 L 59 24 L 59 23 L 59 22 L 60 22 L 60 21 L 60 20 L 60 19 L 60 18 L 60 17 L 59 17 L 59 16 L 58 16 L 58 15 L 57 15 L 57 14 L 56 14 L 56 15 L 56 16 L 56 17 L 56 18z" style="stroke: black;fill:none;"/><path d=" M 55 19 L 54 19 L 54 20 L 55 20z" style="stroke: black;fill:none;"/><path d=" M 55 21 L 55 22 L 56 22 L 56 21z" style="stroke: black;fill:none;"/><path d=" M 55 22 L 55 23 L 56 23 L 56 22z" style="stroke: black;fill:none;"/><path d=" M 55 37 L 55 38 L 55 39 L 55 40 L 55 41 L 56 41 L 57 41 L 57 40 L 58 40 L 58 39 L 58 38 L 59 38 L 59 37 L 59 36 L 59 35 L 59 34 L 59 33 L 58 33 L 58 32 L 58 31 L 57 31 L 57 32 L 57 33 L 56 33 L 56 32 L 57 32 L 57 33 L 56 33 L 56 34 L 56 35 L 56 36 L 56 37z" style="stroke: black;fill:none;"/><path d=" M 55 42 L 55 43 L 56 43 L 56 42z" style="stroke: black;fill:none;"/><path d=" M 55 43 L 54 43 L 54 44 L 55 44z" style="stroke: black;fill:none;"/><path d=" M 55 49 L 55 50 L 56 50 L 56 49z" style="stroke: black;fill:none;"/><path d=" M 55 50 L 55 51 L 56 51 L 56 50z" style="stroke: black;fill:none;"/><path d=" M 56 41 L 56 42 L 57 42 L 57 41z" style="stroke: black;fill:none;"/><path d=" M 56 42 L 55 42 L 55 43 L 56 43z" style="stroke: black;fill:none;"/><path d=" M 57 41 L 56 41 L 56 42 L 57 42z" style="stroke: black;fill:none;"/><path d=" M 58 27 L 58 28 L 58 29 L 58 30 L 58 31 L 59 31 L 59 32 L 59 33 L 60 33 L 60 34 L 61 34 L 61 35 L 61 36 L 61 37 L 61 38 L 60 38 L 59 38 L 59 37 L 59 36 L 59 35 L 59 34 L 59 33 L 58 33 L 58 32 L 58 31 L 58 30 L 57 30 L 57 29 L 57 28 L 58 28z" style="stroke: black;fill:none;"/><path d=" M 57 40 L 57 41 L 58 41 L 58 40z" style="stroke: black;fill:none;"/><path d=" M 59 24 L 59 25 L 60 25 L 60 24z" style="stroke: black;fill:none;"/><path d=" M 58 38 L 58 39 L 59 39 L 59 38z" style="stroke: black;fill:none;"/><path d=" M 58 39 L 58 40 L 59 40 L 59 39z" style="stroke: black;fill:none;"/><path d=" M 61 45 L 61 46 L 62 46 L 62 47 L 63 47 L 64 47 L 64 48 L 64 49 L 65 49 L 66 49 L 66 50 L 67 50 L 67 51 L 68 51 L 68 52 L 68 53 L 69 53 L 69 54 L 70 54 L 70 55 L 70 56 L 71 56 L 71 57 L 71 58 L 72 58 L 73 58 L 73 59 L 72 59 L 72 58 L 71 58 L 71 57 L 70 57 L 70 56 L 70 55 L 69 55 L 69 54 L 68 54 L 68 53 L 68 52 L 67 52 L 67 51 L 66 51 L 66 50 L 65 50 L 65 49 L 64 49 L 64 48 L 63 48 L 63 47 L 62 47 L 62 46 L 61 46z" style="stroke: black;fill:none;"/><path d=" M 64 66 L 64 67 L 65 67 L 65 66z" style="stroke: black;fill:none;"/><path d=" M 65 66 L 65 67 L 65 68 L 66 68 L 66 67 L 66 66z" style="stroke: black;fill:none;"/><path d=" M 65 68 L 65 69 L 66 69 L 66 68z" style="stroke: black;fill:none;"/><path d=" M 65 69 L 65 70 L 65 71 L 66 71 L 66 70 L 66 69z" style="stroke: black;fill:none;"/><path d=" M 66 71 L 66 72 L 66 73 L 66 74 L 66 75 L 67 75 L 67 74 L 67 73 L 67 72 L 67 71 L 67 70 L 66 70z" style="stroke: black;fill:none;"/><path d=" M 72 60 L 72 61 L 73 61 L 73 60z" style="stroke: black;fill:none;"/></svg>