
	<!DOCTYPE svg PUBLIC "-//W3C//DTD SVG 1.1//EN" "http://www.w3.org/Graphics/SVG/1.1/DTD/svg11.dtd">
	<svg width="100" height="100"
     xmlns="http://www.w3.org/2000/svg" version="1.1"><path d=" M 0 0 L 0 1 L 0 2 L 0 3 L 0 4 L 1 4 L 1 3 L 1 2 L 1 1 L 1 0z" style="stroke: black;fill:none;"/><path d=" M 1 0 L 1 1 L 1 2 L 1 3 L 1 4 L 1 5 L 0 5 L 0 4 L 1 4 L 1 5 L 0 5 L 0 6 L 0 7 L 0 8 L 0 9 L 0 10 L 0 11 L 0 12 L 0 13 L 0 14 L 0 15 L 0 16 L 0 17 L 0 18 L 0 19 L 0 20 L 0 21 L 0 22 L 0 23 L 0 24 L 0 25 L 0 26 L 0 27 L 0 28 L 0 29 L 0 30 L 0 31 L 0 32 L 0 33 L 0 34 L 0 35 L 0 36 L 0 37 L 0 38 L 0 39 L 0 40 L 0 41 L 0 42 L 0 43 L 1 43 L 1 44 L 2 44 L 2 45 L 2 46 L 1 46 L 1 45 L 0 45 L 0 44 L 0 43 L 1 43 L 1 44 L 2 44 L 2 45 L 2 46 L 1 46 L 1 45 L 0 45 L 0 44 L 1 44 L 1 45 L 2 45z" style="stroke: black;fill:none;"/><path d=" M 1 44 L 1 45 L 1 46 L 1 47 L 1 48 L 1 49 L 1 50 L 0 50 L 0 49 L 0 48 L 0 47 L 0 46 L 1 46 L 1 47 L 1 48 L 1 49 L 1 50 L 0 50 L 0 49 L 1 49z" style="stroke: black;fill:none;"/><path d=" M 0 46 L 0 47 L 1 47z" style="stroke: black;fill:none;"/><path d=" M 0 51 L 0 52 L 0 53 L 0 54 L 0 55 L 0 56 L 1 56 L 2 56 L 3 56 L 3 57 L 4 57 L 4 56 L 4 55 L 3 55 L 3 54 L 4 54 L 4 55 L 5 55 L 5 54 L 5 53 L 6 53 L 6 54 L 7 54 L 7 55 L 8 55 L 8 56 L 8 57 L 8 58 L 9 58 L 9 59 L 10 59 L 10 60 L 11 60 L 12 60 L 12 61 L 13 61 L 13 62 L 14 62 L 15 62 L 16 62 L 17 62 L 18 62 L 19 62 L 19 61 L 20 61 L 20 60 L 21 60 L 21 59 L 22 59 L 23 59 L 23 58 L 23 57 L 23 56 L 23 55 L 24 55 L 24 54 L 25 54 L 26 54 L 26 55 L 27 55 L 27 54 L 27 53 L 28 53 L 29 53 L 29 52 L 30 52 L 31 52 L 31 51 L 32 51 L 32 50 L 32 49 L 31 49 L 31 48 L 30 48 L 30 47 L 30 46 L 29 46 L 29 45 L 28 45 L 28 44 L 27 44 L 27 43 L 26 43 L 26 42 L 26 41 L 26 40 L 26 39 L 26 38 L 26 37 L 26 36 L 25 36 L 25 35 L 25 34 L 25 33 L 24 33 L 24 32 L 24 31 L 24 30 L 24 29 L 24 28 L 24 27 L 24 26 L 24 25 L 24 24 L 25 24 L 25 23 L 24 23 L 24 22 L 24 21 L 23 21 L 23 20 L 23 19 L 23 18 L 24 18 L 24 17 L 24 16 L 24 15 L 24 14 L 25 14 L 25 13 L 26 13 L 26 12 L 26 11 L 27 11 L 27 10 L 28 10 L 28 9 L 28 8 L 28 7 L 28 6 L 28 5 L 28 4 L 28 3 L 28 2 L 28 1 L 28 0 L 27 0 L 26 0 L 25 0 L 24 0 L 23 0 L 22 0 L 21 0 L 20 0 L 19 0 L 18 0 L 17 0 L 16 0 L 15 0 L 14 0 L 13 0 L 12 0 L 11 0 L 10 0 L 9 0 L 8 0 L 7 0 L 6 0 L 5 0 L 4 0 L 3 0 L 2 0z" style="stroke: black;fill:none;"/><path d=" M 0 56 L 0 57 L 1 57 L 2 57 L 3 57 L 3 56 L 2 56 L 1 56z" style="stroke: black;fill:none;"/><path d=" M 0 57 L 0 58 L 0 59 L 1 59 L 2 59 L 3 59 L 3 58 L 3 57 L 2 57 L 1 57z" style="stroke: black;fill:none;"/><path d=" M 0 59 L 0 60 L 1 60 L 1 59z" style="stroke: black;fill:none;"/><path d=" M 1 59 L 1 60 L 2 60 L 2 59z" style="stroke: black;fill:none;"/><path d=" M 0 60 L 0 61 L 0 62 L 1 62 L 1 61 L 2 61 L 2 60 L 1 60z" style="stroke: black;fill:none;"/><path d=" M 0 62 L 0 63 L 0 64 L 0 65 L 0 66 L 0 67 L 0 68 L 0 69 L 0 70 L 0 71 L 1 71 L 2 71 L 3 71 L 4 71 L 5 71 L 6 71 L 7 71 L 8 71 L 9 71 L 10 71 L 11 71 L 12 71 L 13 71 L 14 71 L 14 72 L 14 73 L 14 74 L 14 75 L 15 75 L 16 75 L 17 75 L 18 75 L 18 74 L 17 74 L 17 73 L 17 72 L 17 71 L 16 71 L 16 70 L 15 70 L 15 69 L 14 69 L 14 68 L 13 68 L 13 67 L 12 67 L 12 66 L 11 66 L 10 66 L 10 65 L 9 65 L 9 64 L 8 64 L 8 63 L 7 63 L 7 62 L 6 62 L 6 61 L 5 61 L 5 60 L 4 60 L 4 59 L 3 59 L 3 58 L 3 57 L 4 57 L 4 56 L 4 55 L 3 55 L 3 54 L 4 54 L 4 55 L 5 55 L 5 54 L 5 53 L 6 53 L 6 54 L 7 54 L 7 55 L 8 55 L 8 56 L 8 57 L 8 58 L 9 58 L 9 59 L 10 59 L 10 60 L 11 60 L 12 60 L 12 61 L 13 61 L 13 62 L 14 62 L 15 62 L 16 62 L 17 62 L 18 62 L 19 62 L 19 61 L 20 61 L 20 60 L 21 60 L 21 59 L 22 59 L 23 59 L 23 58 L 23 57 L 23 56 L 23 55 L 24 55 L 24 54 L 25 54 L 26 54 L 26 55 L 27 55 L 27 54 L 27 53 L 28 53 L 29 53 L 29 52 L 30 52 L 31 52 L 31 51 L 32 51 L 32 50 L 32 49 L 31 49 L 31 48 L 30 48 L 30 47 L 30 46 L 29 46 L 29 45 L 28 45 L 28 44 L 27 44 L 27 43 L 26 43 L 26 42 L 26 41 L 26 40 L 26 39 L 26 38 L 26 37 L 26 36 L 25 36 L 25 35 L 25 34 L 25 33 L 24 33 L 24 32 L 24 31 L 24 30 L 24 29 L 24 28 L 24 27 L 24 26 L 24 25 L 24 24 L 25 24 L 25 23 L 24 23 L 24 22 L 24 21 L 23 21 L 23 20 L 23 19 L 23 18 L 24 18 L 24 17 L 24 16 L 24 15 L 24 14 L 25 14 L 25 13 L 26 13 L 26 12 L 26 11 L 27 11 L 27 10 L 28 10 L 28 9 L 28 8 L 28 7 L 28 6 L 28 5 L 28 4 L 28 3 L 28 2 L 28 1 L 28 0 L 29 0 L 30 0 L 31 0 L 32 0 L 33 0 L 34 0 L 35 0 L 36 0 L 37 0 L 38 0 L 39 0 L 40 0 L 41 0 L 42 0 L 43 0 L 44 0 L 45 0 L 46 0 L 47 0 L 48 0 L 49 0 L 50 0 L 51 0 L 52 0 L 53 0 L 54 0 L 55 0 L 56 0 L 57 0 L 58 0 L 59 0 L 60 0 L 61 0 L 62 0 L 63 0 L 64 0 L 65 0 L 66 0 L 67 0 L 68 0 L 69 0 L 70 0 L 71 0 L 72 0 L 73 0 L 74 0 L 75 0 L 76 0 L 77 0 L 78 0 L 79 0 L 80 0 L 81 0 L 82 0 L 83 0 L 84 0 L 85 0 L 86 0 L 87 0 L 88 0 L 89 0 L 90 0 L 91 0 L 92 0 L 93 0 L 94 0 L 95 0 L 96 0 L 97 0 L 98 0 L 99 0 L 100 0 L 100 1 L 100 2 L 100 3 L 100 4 L 100 5 L 100 6 L 100 7 L 100 8 L 100 9 L 100 10 L 100 11 L 100 12 L 100 13 L 100 14 L 100 15 L 100 16 L 100 17 L 100 18 L 100 19 L 100 20 L 100 21 L 100 22 L 100 23 L 100 24 L 100 25 L 100 26 L 100 27 L 100 28 L 100 29 L 100 30 L 100 31 L 100 32 L 100 33 L 100 34 L 100 35 L 100 36 L 100 37 L 100 38 L 100 39 L 100 40 L 100 41 L 100 42 L 100 43 L 100 44 L 100 45 L 100 46 L 100 47 L 100 48 L 100 49 L 100 50 L 100 51 L 100 52 L 100 53 L 100 54 L 100 55 L 100 56 L 100 57 L 100 58 L 100 59 L 100 60 L 100 61 L 100 62 L 100 63 L 100 64 L 100 65 L 100 66 L 100 67 L 100 68 L 100 69 L 100 70 L 100 71 L 100 72 L 100 73 L 100 74 L 100 75 L 99 75 L 98 75 L 97 75 L 97 74 L 96 74 L 96 73 L 95 73 L 95 72 L 94 72 L 94 71 L 93 71 L 93 70 L 92 70 L 91 70 L 91 69 L 90 69 L 90 68 L 89 68 L 89 69 L 90 69 L 90 68 L 89 68 L 89 69 L 90 69 L 90 68 L 90 67 L 91 67 L 92 67 L 93 67 L 93 68 L 94 68 L 94 67 L 94 66 L 94 65 L 95 65 L 95 66 L 95 67 L 95 68 L 95 69 L 95 70 L 95 71 L 95 72 L 96 72 L 96 73 L 97 73 L 97 74 L 97 75 L 98 75 L 99 75z" style="stroke: black;fill:none;"/><path d=" M 1 62 L 1 63 L 2 63 L 2 62z" style="stroke: black;fill:none;"/><path d=" M 0 71 L 0 72 L 1 72 L 1 71z" style="stroke: black;fill:none;"/><path d=" M 1 71 L 1 72 L 1 73 L 2 73 L 3 73 L 4 73 L 5 73 L 5 74 L 6 74 L 7 74 L 7 75 L 8 75 L 9 75 L 10 75 L 11 75 L 12 75 L 13 75 L 14 75 L 14 74 L 14 73 L 14 72 L 14 71 L 13 71 L 12 71 L 11 71 L 10 71 L 9 71 L 8 71 L 7 71 L 6 71 L 5 71 L 4 71 L 3 71 L 2 71z" style="stroke: black;fill:none;"/><path d=" M 0 72 L 0 73 L 1 73 L 1 72z" style="stroke: black;fill:none;"/><path d=" M 0 73 L 0 74 L 1 74 L 1 73z" style="stroke: black;fill:none;"/><path d=" M 1 73 L 1 74 L 2 74 L 3 74 L 4 74 L 4 73 L 3 73 L 2 73z" style="stroke: black;fill:none;"/><path d=" M 0 74 L 0 75 L 1 75 L 1 74z" style="stroke: black;fill:none;"/><path d=" M 1 74 L 1 75 L 2 75 L 3 75 L 4 75 L 4 74 L 3 74 L 2 74z" style="stroke: black;fill:none;"/><path d=" M 1 75 L 2 75 L 3 75 L 4 75 L 4 74 L 4 73 L 5 73 L 5 74 L 6 74 L 7 74 L 7 75 L 8 75 L 9 75 L 10 75 L 11 75 L 12 75 L 13 75 L 14 75 L 15 75 L 16 75 L 17 75 L 18 75 L 18 74 L 17 74 L 17 73 L 17 72 L 17 71 L 16 71 L 16 70 L 15 70 L 15 69 L 14 69 L 14 68 L 13 68 L 13 67 L 12 67 L 12 66 L 11 66 L 10 66 L 10 65 L 9 65 L 9 64 L 8 64 L 8 63 L 7 63 L 7 62 L 6 62 L 6 61 L 5 61 L 5 60 L 4 60 L 4 59 L 3 59 L 2 59 L 2 60 L 3 60 L 4 60 L 4 59 L 4 58 L 4 57 L 4 56 L 5 56 L 5 57 L 6 57 L 6 58 L 6 59 L 6 60 L 5 60 L 5 59 L 5 58 L 5 57 L 4 57 L 4 58z" style="stroke: black;fill:none;"/><path d=" M 2 60 L 2 61 L 3 61 L 3 60z" style="stroke: black;fill:none;"/><path d=" M 1 61 L 1 62 L 2 62 L 2 61z" style="stroke: black;fill:none;"/><path d=" M 2 61 L 2 62 L 3 62 L 3 61z" style="stroke: black;fill:none;"/><path d=" M 2 62 L 1 62 L 1 63 L 2 63z" style="stroke: black;fill:none;"/><path d=" M 2 63 L 3 63 L 3 62 L 3 61 L 3 60 L 4 60 L 5 60 L 5 59 L 5 58 L 5 57 L 5 56z" style="stroke: black;fill:none;"/><path d=" M 3 61 L 3 62 L 3 63 L 4 63 L 5 63 L 5 62 L 5 61 L 4 61z" style="stroke: black;fill:none;"/><path d=" M 3 63 L 4 63 L 5 63 L 5 62 L 5 61 L 4 61z" style="stroke: black;fill:none;"/><path d=" M 4 74 L 4 75 L 5 75 L 5 74z" style="stroke: black;fill:none;"/><path d=" M 5 57 L 6 57 L 6 58 L 6 59 L 6 60z" style="stroke: black;fill:none;"/><path d=" M 5 63 L 5 64 L 6 64 L 6 63z" style="stroke: black;fill:none;"/><path d=" M 5 64 L 5 63 L 5 62 L 6 62 L 6 61 L 7 61 L 7 62 L 8 62 L 9 62 L 10 62 L 11 62 L 11 61 L 10 61 L 10 60 L 9 60 L 9 59 L 8 59 L 8 58 L 7 58 L 7 57 L 7 56 L 6 56 L 6 55 L 6 54z" style="stroke: black;fill:none;"/><path d=" M 5 74 L 5 75 L 6 75 L 6 74z" style="stroke: black;fill:none;"/><path d=" M 5 75 L 6 75 L 7 75z" style="stroke: black;fill:none;"/><path d=" M 6 63 L 6 64 L 7 64 L 7 63z" style="stroke: black;fill:none;"/><path d=" M 6 64 L 6 63 L 7 63 L 7 62 L 7 61z" style="stroke: black;fill:none;"/><path d=" M 6 69 L 6 70 L 7 70 L 8 70 L 9 70 L 10 70 L 11 70 L 12 70 L 13 70 L 14 70 L 15 70 L 15 69 L 14 69 L 14 68 L 14 67 L 13 67 L 13 66 L 12 66 L 12 65 L 11 65 L 10 65 L 9 65 L 8 65 L 8 64 L 7 64 L 7 65 L 8 65 L 8 64 L 7 64 L 7 65 L 8 65 L 9 65 L 9 66 L 10 66z" style="stroke: black;fill:none;"/><path d=" M 7 14 L 7 15 L 7 16 L 8 16 L 8 15 L 8 14 L 8 13 L 7 13 L 7 12 L 8 12 L 8 11 L 8 10 L 9 10 L 9 9 L 9 8 L 9 7 L 10 7 L 10 6 L 10 5 L 11 5 L 11 4 L 11 3 L 12 3 L 12 2 L 13 2 L 13 1 L 13 0 L 14 0 L 15 0 L 15 1 L 15 2 L 14 2 L 14 1z" style="stroke: black;fill:none;"/><path d=" M 6 55 L 6 56 L 7 56 L 7 55z" style="stroke: black;fill:none;"/><path d=" M 7 55 L 6 55z" style="stroke: black;fill:none;"/><path d=" M 7 56 L 7 57 L 7 58 L 8 58 L 8 59 L 9 59 L 9 60 L 10 60 L 11 60 L 11 61 L 12 61 L 12 62 L 13 62 L 14 62 L 15 62 L 15 63 L 16 63 L 17 63 L 17 62z" style="stroke: black;fill:none;"/><path d=" M 7 69 L 6 69 L 6 70 L 7 70 L 8 70 L 9 70 L 10 70 L 11 70 L 12 70 L 13 70 L 14 70 L 15 70 L 15 69 L 15 68 L 14 68 L 14 67 L 13 67 L 13 66 L 12 66 L 12 65 L 11 65z" style="stroke: black;fill:none;"/><path d=" M 7 12 L 7 13 L 8 13 L 8 12z" style="stroke: black;fill:none;"/><path d=" M 8 12 L 8 13 L 9 13 L 9 12z" style="stroke: black;fill:none;"/><path d=" M 7 13 L 7 14 L 7 15 L 7 16 L 8 16 L 8 15 L 8 14 L 8 13z" style="stroke: black;fill:none;"/><path d=" M 8 56 L 7 56z" style="stroke: black;fill:none;"/><path d=" M 8 62 L 8 63 L 9 63 L 9 62z" style="stroke: black;fill:none;"/><path d=" M 8 63 L 9 63 L 9 62 L 8 62z" style="stroke: black;fill:none;"/><path d=" M 8 69 L 7 69z" style="stroke: black;fill:none;"/><path d=" M 8 10 L 8 11 L 9 11 L 9 10z" style="stroke: black;fill:none;"/><path d=" M 9 10 L 9 11 L 10 11 L 10 10z" style="stroke: black;fill:none;"/><path d=" M 8 11 L 8 12 L 9 12 L 9 11z" style="stroke: black;fill:none;"/><path d=" M 9 11 L 9 12 L 9 13z" style="stroke: black;fill:none;"/><path d=" M 8 59 L 8 60 L 9 60 L 9 61 L 10 61 L 11 61 L 12 61 L 12 62 L 13 62 L 13 63 L 14 63 L 15 63 L 16 63 L 17 63 L 18 63 L 19 63 L 19 62 L 20 62 L 20 61 L 21 61 L 21 60 L 22 60 L 22 59 L 23 59 L 23 58 L 23 57 L 24 57 L 24 56 L 25 56 L 25 55 L 25 54z" style="stroke: black;fill:none;"/><path d=" M 8 60 L 9 60 L 9 61 L 10 61 L 11 61 L 11 62 L 12 62z" style="stroke: black;fill:none;"/><path d=" M 9 63 L 10 63 L 10 62 L 11 62 L 11 63 L 12 63 L 13 63 L 14 63 L 15 63 L 16 63 L 17 63 L 18 63 L 19 63 L 19 62 L 20 62 L 20 61 L 21 61 L 21 60 L 22 60 L 23 60 L 23 59 L 24 59 L 24 58 L 24 57 L 24 56 L 25 56 L 25 55 L 26 55 L 27 55 L 27 54 L 28 54 L 28 53 L 29 53 L 30 53 L 30 52 L 31 52 L 32 52 L 32 51 L 32 50 L 32 49 L 32 48 L 31 48 L 31 47 L 30 47 L 30 46 L 30 45 L 29 45 L 29 44 L 28 44 L 28 43 L 27 43 L 27 42 L 26 42 L 26 43 L 27 43 L 27 42 L 27 41 L 27 40 L 26 40z" style="stroke: black;fill:none;"/><path d=" M 9 69 L 8 69z" style="stroke: black;fill:none;"/><path d=" M 9 7 L 9 8 L 10 8 L 10 7z" style="stroke: black;fill:none;"/><path d=" M 10 7 L 10 8 L 11 8 L 11 7z" style="stroke: black;fill:none;"/><path d=" M 9 8 L 9 9 L 10 9 L 10 8z" style="stroke: black;fill:none;"/><path d=" M 10 8 L 10 9 L 11 9 L 11 8z" style="stroke: black;fill:none;"/><path d=" M 9 9 L 9 10 L 10 10 L 10 9z" style="stroke: black;fill:none;"/><path d=" M 10 9 L 10 10 L 10 11z" style="stroke: black;fill:none;"/><path d=" M 10 62 L 10 63 L 11 63 L 11 62z" style="stroke: black;fill:none;"/><path d=" M 10 63 L 10 64 L 11 64 L 11 63z" style="stroke: black;fill:none;"/><path d=" M 10 69 L 9 69z" style="stroke: black;fill:none;"/><path d=" M 10 5 L 10 6 L 10 7 L 11 7 L 11 6 L 11 5z" style="stroke: black;fill:none;"/><path d=" M 11 5 L 11 6 L 12 6 L 12 5z" style="stroke: black;fill:none;"/><path d=" M 11 7 L 11 8 L 12 8 L 12 7z" style="stroke: black;fill:none;"/><path d=" M 11 8 L 11 9 L 11 10 L 12 10 L 12 9 L 13 9 L 13 8 L 13 7 L 13 6 L 12 6 L 12 5 L 11 5 L 11 4 L 11 3 L 12 3 L 12 2 L 13 2 L 13 1z" style="stroke: black;fill:none;"/><path d=" M 11 9 L 11 10 L 12 10 L 12 9 L 13 9 L 13 8 L 13 7 L 13 6 L 12 6 L 12 5 L 12 4 L 11 4z" style="stroke: black;fill:none;"/><path d=" M 11 63 L 10 63 L 10 64 L 11 64z" style="stroke: black;fill:none;"/><path d=" M 11 64 L 12 64 L 12 63 L 13 63 L 14 63 L 15 63 L 15 64 L 16 64 L 17 64 L 17 63 L 18 63 L 19 63 L 20 63 L 20 62 L 21 62 L 21 61 L 22 61 L 22 60 L 23 60 L 24 60 L 24 59 L 24 58 L 24 57 L 25 57 L 25 56 L 25 55 L 26 55 L 27 55 L 28 55 L 28 54 L 29 54 L 29 53 L 30 53 L 31 53 L 31 52 L 32 52 L 32 51 L 33 51 L 33 50 L 33 49 L 33 48 L 32 48 L 32 47 L 31 47 L 31 46 L 30 46 L 30 45 L 29 45 L 29 44 L 28 44 L 28 43 L 28 42 L 27 42 L 27 41 L 27 40 L 27 39 L 27 38 L 26 38 L 26 37 L 26 36 L 26 35 L 25 35 L 25 34 L 25 33 L 25 32 L 24 32 L 24 31 L 24 30 L 24 29 L 24 28 L 24 27 L 24 26 L 24 25 L 25 25 L 25 24 L 25 23 L 25 22 L 24 22 L 24 21 L 24 20 L 23 20 L 23 19 L 24 19 L 24 18 L 24 17 L 24 16 L 24 15 L 25 15 L 25 14 L 26 14 L 26 13 L 26 12 L 27 12 L 27 11 L 28 11 L 28 10 L 28 9 L 29 9 L 29 8 L 29 7 L 29 6 L 29 5 L 29 4 L 29 3 L 29 2 L 29 1 L 29 0 L 30 0 L 31 0 L 32 0 L 33 0 L 34 0 L 35 0 L 35 1 L 35 2 L 35 3 L 35 4 L 35 5 L 35 6 L 35 7 L 35 8 L 36 8 L 36 7 L 37 7 L 38 7 L 39 7 L 39 6 L 40 6 L 40 5 L 41 5 L 41 4 L 42 4 L 42 3 L 43 3 L 43 2 L 44 2 L 45 2 L 46 2 L 47 2 L 48 2 L 49 2 L 49 1 L 49 0z" style="stroke: black;fill:none;"/><path d=" M 11 69 L 10 69z" style="stroke: black;fill:none;"/><path d=" M 12 3 L 12 4 L 13 4 L 13 3 L 13 2 L 14 2 L 14 1z" style="stroke: black;fill:none;"/><path d=" M 12 4 L 12 5 L 13 5 L 13 4z" style="stroke: black;fill:none;"/><path d=" M 11 6 L 11 7 L 12 7 L 12 6z" style="stroke: black;fill:none;"/><path d=" M 12 7 L 12 8z" style="stroke: black;fill:none;"/><path d=" M 12 63 L 12 64 L 13 64 L 13 63z" style="stroke: black;fill:none;"/><path d=" M 12 64 L 13 64 L 14 64 L 14 63z" style="stroke: black;fill:none;"/><path d=" M 12 65 L 13 65 L 13 64 L 14 64 L 15 64 L 16 64 L 17 64 L 18 64 L 19 64 L 19 63 L 20 63 L 20 62 L 21 62 L 21 61 L 22 61 L 22 60 L 23 60 L 24 60 L 24 59 L 24 58 L 24 57 L 25 57 L 25 56 L 26 56 L 27 56z" style="stroke: black;fill:none;"/><path d=" M 12 69 L 11 69z" style="stroke: black;fill:none;"/><path d=" M 13 2 L 13 3 L 14 3 L 14 2z" style="stroke: black;fill:none;"/><path d=" M 13 4 L 12 4z" style="stroke: black;fill:none;"/><path d=" M 13 5 L 13 6z" style="stroke: black;fill:none;"/><path d=" M 13 64 L 13 65 L 14 65 L 14 64z" style="stroke: black;fill:none;"/><path d=" M 13 65 L 14 65 L 14 64 L 15 64 L 16 64 L 17 64 L 18 64 L 19 64 L 20 64 L 20 63 L 21 63 L 21 62z" style="stroke: black;fill:none;"/><path d=" M 13 66 L 14 66 L 14 67 L 15 67 L 16 67 L 17 67 L 18 67 L 18 66 L 17 66 L 17 65 L 16 65 L 16 64 L 15 64 L 15 65 L 16 65 L 17 65 L 17 64 L 18 64 L 19 64 L 20 64 L 20 63 L 21 63 L 21 64 L 20 64 L 19 64 L 18 64 L 18 65 L 19 65 L 20 65 L 20 64 L 21 64 L 21 63z" style="stroke: black;fill:none;"/><path d=" M 13 69 L 12 69z" style="stroke: black;fill:none;"/><path d=" M 14 2 L 14 3 L 14 4 L 13 4 L 13 3 L 14 3z" style="stroke: black;fill:none;"/><path d=" M 14 65 L 15 65 L 16 65 L 17 65 L 18 65 L 19 65 L 20 65 L 20 66 L 20 67 L 20 68 L 19 68 L 19 67 L 18 67 L 18 66 L 17 66 L 17 65 L 16 65 L 15 65z" style="stroke: black;fill:none;"/><path d=" M 14 66 L 14 67 L 15 67 L 16 67 L 17 67 L 18 67 L 18 66 L 17 66 L 16 66 L 15 66 L 15 65z" style="stroke: black;fill:none;"/><path d=" M 15 2 L 15 1z" style="stroke: black;fill:none;"/><path d=" M 15 67 L 15 68 L 16 68 L 16 69 L 17 69 L 17 68 L 18 68 L 18 67 L 18 66 L 18 65 L 19 65 L 20 65 L 20 66 L 20 67 L 20 68 L 19 68 L 19 67 L 19 66 L 19 65 L 18 65z" style="stroke: black;fill:none;"/><path d=" M 15 68 L 16 68 L 16 69 L 17 69 L 17 68 L 18 68 L 19 68 L 19 67 L 19 66 L 20 66 L 20 67 L 19 67 L 19 66z" style="stroke: black;fill:none;"/><path d=" M 15 66 L 16 66z" style="stroke: black;fill:none;"/><path d=" M 16 69 L 16 70 L 17 70 L 17 69z" style="stroke: black;fill:none;"/><path d=" M 16 70 L 16 71 L 17 71 L 17 70z" style="stroke: black;fill:none;"/><path d=" M 17 69 L 16 69z" style="stroke: black;fill:none;"/><path d=" M 17 70 L 17 71 L 18 71 L 18 70 L 18 69 L 18 68 L 19 68 L 19 69 L 19 70 L 19 71 L 19 72 L 19 73 L 19 74 L 20 74 L 20 73 L 20 72 L 20 71 L 20 70 L 20 69 L 21 69 L 21 68 L 22 68 L 22 67 L 22 66 L 23 66 L 23 65 L 24 65 L 24 64 L 25 64 L 25 63 L 26 63 L 26 62 L 27 62 L 27 61 L 27 60 L 26 60 L 25 60 L 24 60 L 24 59 L 24 58 L 25 58 L 25 57 L 26 57 L 26 56 L 27 56z" style="stroke: black;fill:none;"/><path d=" M 18 68 L 18 69 L 19 69 L 19 70 L 19 71 L 19 72 L 19 73 L 19 74 L 20 74 L 20 73 L 20 72 L 20 71 L 20 70 L 20 69 L 21 69 L 21 68 L 22 68 L 22 67 L 22 66 L 23 66 L 23 65 L 24 65 L 24 64 L 25 64 L 25 63 L 26 63 L 26 62 L 27 62 L 27 61 L 27 60 L 26 60 L 25 60 L 24 60 L 23 60 L 23 61 L 24 61z" style="stroke: black;fill:none;"/><path d=" M 18 69 L 18 70 L 19 70 L 19 69z" style="stroke: black;fill:none;"/><path d=" M 18 71 L 18 72 L 19 72 L 19 73 L 19 74 L 20 74 L 20 73 L 20 72 L 21 72 L 21 71 L 21 70 L 21 69 L 22 69 L 22 68 L 22 67 L 23 67 L 23 66 L 24 66 L 24 65 L 25 65 L 25 64 L 26 64 L 26 63 L 27 63 L 27 62 L 28 62 L 28 61 L 29 61 L 29 60 L 28 60 L 28 59 L 27 59 L 27 58 L 26 58 L 26 57 L 25 57 L 25 58 L 26 58 L 26 57 L 26 56z" style="stroke: black;fill:none;"/><path d=" M 17 72 L 17 73 L 18 73 L 18 72z" style="stroke: black;fill:none;"/><path d=" M 18 72 L 18 73 L 18 74 L 18 75 L 19 75 L 20 75 L 20 74 L 21 74 L 21 73 L 21 72 L 21 71 L 21 70 L 21 69 L 22 69 L 22 68 L 23 68 L 23 67 L 23 66 L 24 66 L 24 65 L 25 65 L 25 64 L 26 64 L 26 63 L 27 63 L 27 62 L 28 62 L 28 61 L 29 61 L 29 60 L 28 60 L 28 59 L 27 59 L 27 58 L 26 58 L 26 57 L 26 56z" style="stroke: black;fill:none;"/><path d=" M 18 70 L 18 71 L 18 72 L 18 73z" style="stroke: black;fill:none;"/><path d=" M 19 75 L 20 75 L 21 75 L 21 74 L 21 73 L 21 72z" style="stroke: black;fill:none;"/><path d=" M 20 75 L 19 75z" style="stroke: black;fill:none;"/><path d=" M 21 73 L 21 74 L 21 75 L 22 75 L 23 75 L 24 75 L 25 75 L 26 75 L 27 75 L 28 75 L 29 75 L 30 75 L 31 75 L 32 75 L 33 75 L 34 75 L 35 75 L 36 75 L 37 75 L 38 75 L 38 74 L 37 74 L 37 73 L 37 72 L 37 71 L 36 71 L 36 70 L 36 69 L 36 68 L 35 68 L 35 67 L 34 67 L 34 66 L 33 66 L 33 65 L 32 65 L 32 64 L 31 64 L 31 63 L 31 62 L 30 62 L 30 61 L 29 61 L 29 60 L 29 59 L 30 59 L 30 58 L 29 58 L 29 57 L 28 57 L 28 56 L 28 55 L 28 54 L 29 54 L 30 54 L 30 53 L 31 53 L 32 53 L 32 52 L 33 52 L 33 51 L 33 50 L 33 49 L 33 48 L 32 48 L 32 47 L 31 47 L 31 46 L 31 45 L 30 45 L 30 44 L 29 44 L 29 43 L 28 43 L 28 42 L 27 42 L 27 41 L 27 40 L 27 39 L 27 38 L 27 37 L 27 36 L 26 36 L 26 35 L 26 34 L 26 33 L 25 33 L 25 32 L 25 31 L 25 30 L 25 29 L 25 28 L 25 27 L 25 26 L 25 25 L 25 24 L 25 23 L 25 22 L 25 21 L 24 21 L 24 20 L 24 19 L 24 18 L 25 18 L 25 17 L 25 16 L 25 15 L 25 14 L 26 14 L 26 13 L 27 13 L 27 12 L 27 11 L 28 11 L 28 10 L 29 10 L 29 9 L 29 8 L 29 7 L 29 6 L 29 5 L 29 4 L 29 3 L 29 2 L 29 1z" style="stroke: black;fill:none;"/><path d=" M 21 75 L 22 75 L 23 75 L 24 75 L 25 75 L 26 75 L 27 75 L 28 75 L 29 75 L 30 75 L 31 75 L 32 75 L 33 75 L 34 75 L 35 75 L 36 75 L 37 75 L 38 75 L 38 74 L 37 74 L 37 73 L 37 72 L 37 71 L 36 71 L 36 70 L 36 69 L 36 68 L 35 68 L 35 67 L 34 67 L 34 66 L 33 66 L 33 65 L 32 65 L 32 64 L 31 64 L 31 63 L 31 62 L 30 62 L 30 61 L 29 61 L 29 60 L 29 59 L 30 59 L 30 58 L 29 58 L 29 57 L 28 57 L 28 56 L 28 55 L 28 54 L 29 54 L 30 54 L 30 53 L 31 53 L 32 53 L 32 52 L 33 52 L 33 51 L 33 50 L 33 49 L 33 48 L 32 48 L 32 47 L 31 47 L 31 46 L 31 45 L 30 45 L 30 44 L 29 44 L 29 43 L 28 43 L 28 42 L 28 41 L 28 40 L 27 40 L 27 39 L 27 38 L 27 37 L 27 36 L 27 35 L 26 35 L 26 34 L 26 33 L 26 32 L 25 32 L 25 31 L 25 30 L 25 29 L 25 28 L 25 27 L 25 26 L 25 25 L 26 25 L 26 24 L 26 23 L 26 22 L 26 21 L 25 21 L 25 20 L 24 20 L 24 19 L 25 19 L 25 18 L 25 17 L 25 16 L 25 15 L 26 15 L 26 14z" style="stroke: black;fill:none;"/><path d=" M 22 61 L 22 62 L 23 62 L 23 61z" style="stroke: black;fill:none;"/><path d=" M 22 69 L 22 70 L 21 70z" style="stroke: black;fill:none;"/><path d=" M 23 61 L 22 61 L 22 62 L 23 62z" style="stroke: black;fill:none;"/><path d=" M 23 67 L 23 68z" style="stroke: black;fill:none;"/><path d=" M 24 19 L 24 20 L 25 20 L 25 19z" style="stroke: black;fill:none;"/><path d=" M 24 61 L 23 61z" style="stroke: black;fill:none;"/><path d=" M 24 66 L 24 67 L 23 67z" style="stroke: black;fill:none;"/><path d=" M 24 67 L 24 66 L 25 66 L 25 65 L 26 65 L 26 64 L 27 64 L 27 63 L 28 63 L 28 62 L 29 62 L 30 62 L 30 61 L 30 60 L 30 59 L 30 58 L 29 58 L 29 57 L 28 57 L 28 56 L 28 55 L 29 55 L 29 54 L 30 54 L 31 54 L 31 53 L 32 53 L 33 53 L 34 53 L 35 53 L 36 53 L 37 53 L 37 52 L 37 51 L 37 50 L 37 49 L 36 49 L 36 48 L 35 48 L 35 47 L 34 47 L 34 46 L 33 46 L 33 45 L 34 45 L 35 45 L 35 46 L 35 47 L 36 47 L 36 48 L 37 48 L 37 47 L 37 46 L 37 45 L 37 44 L 36 44 L 36 43 L 36 42 L 36 41 L 37 41 L 37 42 L 38 42 L 38 41 L 38 40 L 37 40 L 37 39 L 36 39 L 36 38 L 36 37 L 36 36 L 36 35 L 36 34 L 35 34 L 35 33 L 34 33 L 34 32 L 33 32 L 33 31 L 32 31 L 32 30 L 31 30 L 31 29 L 31 28 L 31 27 L 32 27 L 32 26 L 32 25 L 33 25 L 33 24 L 34 24 L 34 23 L 33 23 L 33 22 L 32 22 L 32 23 L 33 23 L 33 22 L 32 22 L 32 23 L 33 23 L 33 22 L 33 21 L 34 21 L 34 20 L 35 20 L 36 20 L 36 21 L 35 21 L 35 20 L 34 20 L 34 21 L 35 21 L 35 20 L 36 20 L 36 21 L 35 21 L 34 21 L 33 21 L 33 22 L 34 22 L 35 22 L 35 21z" style="stroke: black;fill:none;"/><path d=" M 25 15 L 25 16 L 26 16 L 26 15z" style="stroke: black;fill:none;"/><path d=" M 25 16 L 25 17 L 26 17 L 26 16z" style="stroke: black;fill:none;"/><path d=" M 25 17 L 25 18 L 26 18 L 26 17z" style="stroke: black;fill:none;"/><path d=" M 25 18 L 25 19 L 25 20 L 25 21 L 26 21 L 26 20 L 26 19 L 26 18z" style="stroke: black;fill:none;"/><path d=" M 25 21 L 25 22z" style="stroke: black;fill:none;"/><path d=" M 25 25 L 25 26 L 26 26 L 26 25z" style="stroke: black;fill:none;"/><path d=" M 25 26 L 25 27 L 26 27 L 26 26z" style="stroke: black;fill:none;"/><path d=" M 25 27 L 25 28 L 25 29 L 25 30 L 25 31 L 25 32 L 26 32 L 26 33 L 26 34 L 27 34 L 27 35 L 28 35 L 28 36 L 29 36 L 29 37 L 29 38 L 29 39 L 29 40 L 29 41 L 29 42 L 29 43 L 30 43 L 30 44z" style="stroke: black;fill:none;"/><path d=" M 25 58 L 25 59 L 26 59 L 26 58z" style="stroke: black;fill:none;"/><path d=" M 25 59 L 25 58z" style="stroke: black;fill:none;"/><path d=" M 25 65 L 25 66z" style="stroke: black;fill:none;"/><path d=" M 26 15 L 26 16 L 26 17 L 27 17 L 27 16 L 27 15z" style="stroke: black;fill:none;"/><path d=" M 26 17 L 26 18 L 27 18 L 27 17z" style="stroke: black;fill:none;"/><path d=" M 26 18 L 26 19 L 27 19 L 27 18z" style="stroke: black;fill:none;"/><path d=" M 26 21 L 26 22 L 27 22 L 27 21z" style="stroke: black;fill:none;"/><path d=" M 26 23 L 26 24 L 27 24 L 27 23 L 27 22 L 26 22 L 26 21 L 26 20 L 26 19 L 27 19 L 27 18 L 27 17 L 27 16 L 27 15 L 26 15z" style="stroke: black;fill:none;"/><path d=" M 26 24 L 26 25 L 27 25 L 27 24z" style="stroke: black;fill:none;"/><path d=" M 26 25 L 26 26 L 26 27z" style="stroke: black;fill:none;"/><path d=" M 26 34 L 26 35 L 27 35 L 27 34z" style="stroke: black;fill:none;"/><path d=" M 26 59 L 25 59z" style="stroke: black;fill:none;"/><path d=" M 26 64 L 26 65z" style="stroke: black;fill:none;"/><path d=" M 27 12 L 27 13 L 28 13 L 28 12z" style="stroke: black;fill:none;"/><path d=" M 27 13 L 27 14 L 28 14 L 28 13z" style="stroke: black;fill:none;"/><path d=" M 27 17 L 27 18 L 28 18 L 28 17z" style="stroke: black;fill:none;"/><path d=" M 27 19 L 27 20 L 28 20 L 28 19z" style="stroke: black;fill:none;"/><path d=" M 26 20 L 27 20 L 27 19 L 28 19 L 28 18 L 28 17 L 28 16 L 28 15 L 29 15 L 29 14 L 30 14 L 30 13 L 30 12 L 31 12 L 32 12 L 32 11 L 32 10 L 31 10 L 31 9 L 30 9 L 30 8 L 30 7 L 30 6 L 30 5 L 30 4 L 30 3 L 30 2 L 30 1z" style="stroke: black;fill:none;"/><path d=" M 27 20 L 27 21 L 27 22 L 27 23 L 27 24 L 27 25z" style="stroke: black;fill:none;"/><path d=" M 27 35 L 27 36 L 28 36 L 28 35z" style="stroke: black;fill:none;"/><path d=" M 27 36 L 27 37 L 28 37 L 28 36z" style="stroke: black;fill:none;"/><path d=" M 27 37 L 27 38 L 28 38 L 28 37z" style="stroke: black;fill:none;"/><path d=" M 26 44 L 27 44 L 27 45 L 28 45z" style="stroke: black;fill:none;"/><path d=" M 27 44 L 26 44z" style="stroke: black;fill:none;"/><path d=" M 27 57 L 27 58 L 28 58 L 28 57z" style="stroke: black;fill:none;"/><path d=" M 27 58 L 27 59 L 28 59 L 28 58z" style="stroke: black;fill:none;"/><path d=" M 27 59 L 26 59z" style="stroke: black;fill:none;"/><path d=" M 27 63 L 27 64z" style="stroke: black;fill:none;"/><path d=" M 28 11 L 28 12 L 29 12 L 29 11z" style="stroke: black;fill:none;"/><path d=" M 28 12 L 27 12 L 27 13 L 28 13z" style="stroke: black;fill:none;"/><path d=" M 27 14 L 27 15z" style="stroke: black;fill:none;"/><path d=" M 28 14 L 27 14z" style="stroke: black;fill:none;"/><path d=" M 28 17 L 28 18 L 29 18 L 29 17z" style="stroke: black;fill:none;"/><path d=" M 28 18 L 28 19 L 28 20 L 27 20 L 27 21z" style="stroke: black;fill:none;"/><path d=" M 28 36 L 28 37 L 29 37 L 29 36z" style="stroke: black;fill:none;"/><path d=" M 28 37 L 28 38 L 29 38 L 29 37z" style="stroke: black;fill:none;"/><path d=" M 28 38 L 28 39 L 28 40 L 29 40 L 29 39 L 29 38z" style="stroke: black;fill:none;"/><path d=" M 28 39 L 28 40 L 29 40 L 29 41 L 29 42 L 29 43 L 30 43z" style="stroke: black;fill:none;"/><path d=" M 28 40 L 28 41 L 29 41 L 29 42 L 28 42 L 28 41z" style="stroke: black;fill:none;"/><path d=" M 28 62 L 28 63 L 29 63 L 29 62z" style="stroke: black;fill:none;"/><path d=" M 28 63 L 29 63 L 29 62 L 30 62 L 30 61 L 30 60 L 30 59 L 31 59 L 31 60 L 32 60 L 32 61 L 33 61 L 33 62 L 34 62 L 34 63 L 35 63 L 35 64 L 35 65 L 36 65 L 37 65 L 37 66 L 36 66 L 36 65 L 35 65 L 35 64 L 34 64 L 34 63 L 33 63 L 33 62 L 33 61 L 32 61 L 32 60 L 31 60 L 31 59z" style="stroke: black;fill:none;"/><path d=" M 29 9 L 29 10 L 30 10 L 30 9z" style="stroke: black;fill:none;"/><path d=" M 29 10 L 29 11 L 30 11 L 31 11 L 31 10 L 30 10 L 30 9 L 29 9z" style="stroke: black;fill:none;"/><path d=" M 29 11 L 28 11 L 28 12 L 29 12z" style="stroke: black;fill:none;"/><path d=" M 28 15 L 28 16 L 29 16 L 29 15z" style="stroke: black;fill:none;"/><path d=" M 29 15 L 29 16 L 30 16 L 30 15z" style="stroke: black;fill:none;"/><path d=" M 28 16 L 28 17 L 29 17 L 29 16z" style="stroke: black;fill:none;"/><path d=" M 29 16 L 29 17 L 29 18z" style="stroke: black;fill:none;"/><path d=" M 29 55 L 29 56 L 30 56 L 30 55z" style="stroke: black;fill:none;"/><path d=" M 29 56 L 29 57 L 30 57 L 30 56z" style="stroke: black;fill:none;"/><path d=" M 29 62 L 29 63 L 30 63z" style="stroke: black;fill:none;"/><path d=" M 30 9 L 30 10 L 31 10 L 31 9z" style="stroke: black;fill:none;"/><path d=" M 30 11 L 29 11 L 29 10z" style="stroke: black;fill:none;"/><path d=" M 29 14 L 29 15 L 30 15 L 30 14z" style="stroke: black;fill:none;"/><path d=" M 30 14 L 30 15 L 31 15 L 31 14z" style="stroke: black;fill:none;"/><path d=" M 30 15 L 30 16z" style="stroke: black;fill:none;"/><path d=" M 30 54 L 30 55 L 31 55 L 32 55 L 32 54 L 33 54 L 34 54 L 35 54 L 36 54 L 37 54 L 37 53 L 36 53 L 35 53 L 34 53 L 33 53z" style="stroke: black;fill:none;"/><path d=" M 30 55 L 29 55 L 29 56 L 30 56z" style="stroke: black;fill:none;"/><path d=" M 30 56 L 29 56 L 29 55 L 30 55 L 31 55 L 32 55 L 32 54 L 33 54 L 34 54 L 35 54 L 36 54 L 37 54 L 37 53 L 37 52 L 37 51 L 37 50 L 37 49 L 36 49 L 36 48 L 35 48 L 35 47 L 34 47 L 34 46 L 33 46 L 33 45 L 34 45 L 35 45 L 35 46 L 35 47 L 36 47 L 36 48 L 37 48 L 37 47 L 37 46 L 37 45 L 37 44 L 36 44 L 36 43 L 36 42 L 36 41 L 37 41 L 37 42 L 38 42 L 38 41 L 38 40 L 37 40 L 37 39 L 36 39 L 36 38 L 36 37 L 36 36 L 36 35 L 36 34 L 35 34 L 35 33 L 34 33 L 34 32 L 33 32 L 33 31 L 32 31 L 32 30 L 31 30 L 31 29 L 31 28 L 31 27 L 32 27 L 32 26 L 32 25 L 33 25 L 33 24 L 34 24 L 34 23 L 34 22 L 35 22 L 35 23 L 36 23 L 36 22 L 37 22 L 37 21 L 37 20 L 38 20 L 38 19 L 38 18 L 39 18 L 40 18 L 40 17 L 40 16 L 39 16 L 39 15 L 38 15 L 38 14 L 38 13 L 38 12 L 37 12 L 37 11 L 37 10 L 36 10 L 36 9 L 35 9 L 35 8 L 34 8 L 34 7 L 34 6 L 34 5 L 34 4 L 34 3 L 34 2 L 34 1z" style="stroke: black;fill:none;"/><path d=" M 30 60 L 31 60 L 31 61 L 32 61 L 32 62 L 32 63 L 33 63 L 33 62 L 34 62 L 34 63 L 35 63 L 35 64 L 35 65 L 36 65 L 37 65 L 37 66 L 36 66 L 35 66 L 35 65 L 34 65 L 34 64 L 33 64 L 33 63 L 32 63 L 32 62 L 31 62 L 31 61 L 31 60z" style="stroke: black;fill:none;"/><path d=" M 30 1 L 30 2 L 30 3 L 30 4 L 30 5 L 30 6 L 30 7 L 30 8 L 31 8 L 31 7 L 31 6 L 31 5 L 31 4 L 31 3 L 31 2 L 31 1z" style="stroke: black;fill:none;"/><path d=" M 30 8 L 31 8 L 31 7 L 31 6 L 31 5 L 31 4 L 31 3 L 31 2 L 31 1z" style="stroke: black;fill:none;"/><path d=" M 31 8 L 31 9 L 32 9 L 32 10 L 33 10 L 33 9 L 33 8 L 33 7 L 33 6 L 33 5 L 33 4 L 33 3 L 33 2 L 33 1z" style="stroke: black;fill:none;"/><path d=" M 31 9 L 31 10 L 32 10 L 32 9z" style="stroke: black;fill:none;"/><path d=" M 30 12 L 30 13 L 31 13 L 31 12z" style="stroke: black;fill:none;"/><path d=" M 31 12 L 31 13 L 32 13 L 32 12z" style="stroke: black;fill:none;"/><path d=" M 30 13 L 30 14 L 31 14 L 31 13z" style="stroke: black;fill:none;"/><path d=" M 31 13 L 31 14 L 32 14 L 32 13z" style="stroke: black;fill:none;"/><path d=" M 31 14 L 31 15z" style="stroke: black;fill:none;"/><path d=" M 31 46 L 32 46 L 32 47 L 33 47 L 33 46 L 34 46 L 35 46z" style="stroke: black;fill:none;"/><path d=" M 31 55 L 31 56 L 32 56 L 32 55z" style="stroke: black;fill:none;"/><path d=" M 31 56 L 32 56 L 32 55 L 33 55 L 33 54 L 34 54 L 35 54 L 35 55 L 36 55 L 37 55 L 38 55 L 38 54 L 37 54 L 37 53 L 37 52 L 37 51 L 37 50 L 37 49 L 36 49 L 36 50 L 35 50 L 35 49 L 34 49 L 34 48 L 33 48 L 33 47 L 34 47 L 34 48 L 35 48 L 35 49 L 35 50 L 36 50z" style="stroke: black;fill:none;"/><path d=" M 31 61 L 31 62 L 32 62 L 32 61z" style="stroke: black;fill:none;"/><path d=" M 32 8 L 31 8z" style="stroke: black;fill:none;"/><path d=" M 32 10 L 32 11 L 33 11 L 33 10z" style="stroke: black;fill:none;"/><path d=" M 32 12 L 32 13 L 33 13 L 33 12z" style="stroke: black;fill:none;"/><path d=" M 32 13 L 32 14z" style="stroke: black;fill:none;"/><path d=" M 32 27 L 32 28 L 32 29 L 33 29 L 33 28 L 33 27z" style="stroke: black;fill:none;"/><path d=" M 31 28 L 31 29 L 32 29 L 32 28z" style="stroke: black;fill:none;"/><path d=" M 32 28 L 32 29 L 33 29 L 33 28 L 33 27 L 32 27 L 32 26 L 33 26 L 33 25 L 34 25 L 34 24 L 34 23 L 34 22 L 35 22 L 35 23 L 36 23 L 36 22 L 37 22 L 37 21 L 37 20 L 38 20 L 38 19 L 38 18 L 39 18 L 40 18 L 40 17 L 40 16 L 39 16 L 39 15 L 38 15 L 38 14 L 38 13 L 38 12 L 37 12 L 37 11 L 37 10 L 36 10 L 36 9 L 35 9 L 35 8 L 34 8 L 34 7 L 34 6 L 34 5 L 34 4 L 34 3 L 34 2 L 34 1z" style="stroke: black;fill:none;"/><path d=" M 32 29 L 32 30 L 33 30 L 33 29z" style="stroke: black;fill:none;"/><path d=" M 32 30 L 32 31 L 33 31 L 33 30z" style="stroke: black;fill:none;"/><path d=" M 32 56 L 31 56z" style="stroke: black;fill:none;"/><path d=" M 31 63 L 32 63 L 33 63 L 34 63 L 34 64 L 34 65 L 34 66 L 35 66 L 36 66 L 36 67 L 37 67 L 37 68 L 37 69 L 38 69 L 38 70 L 39 70 L 39 71 L 39 72 L 39 73 L 39 74 L 40 74 L 40 75 L 41 75 L 42 75 L 43 75 L 44 75 L 45 75 L 46 75 L 47 75 L 48 75 L 49 75 L 50 75 L 51 75 L 51 74 L 51 73 L 51 72 L 50 72 L 50 71 L 49 71 L 49 70 L 49 69 L 48 69 L 48 68 L 47 68 L 47 67 L 47 66 L 46 66 L 46 65 L 47 65 L 47 64 L 46 64 L 46 63 L 45 63 L 45 62 L 44 62 L 44 61 L 43 61 L 43 60 L 42 60 L 42 59 L 42 58 L 41 58 L 41 57 L 40 57 L 40 56 L 39 56 L 39 55 L 38 55 L 38 54 L 38 53 L 38 52 L 38 51 L 38 50 L 38 49 L 37 49 L 37 48 L 37 47 L 37 46 L 37 45 L 37 44 L 37 43 L 36 43z" style="stroke: black;fill:none;"/><path d=" M 32 63 L 32 64 L 33 64 L 34 64 L 34 65 L 34 66 L 35 66 L 36 66 L 36 67 L 37 67 L 37 68 L 37 69 L 38 69 L 38 70 L 39 70 L 39 71 L 39 72 L 39 73 L 39 74 L 40 74 L 40 75 L 41 75 L 42 75 L 43 75 L 44 75 L 45 75 L 46 75 L 47 75 L 48 75 L 49 75 L 50 75 L 51 75 L 51 74 L 51 73 L 51 72 L 50 72 L 50 71 L 49 71 L 49 70 L 49 69 L 48 69 L 48 68 L 47 68 L 47 67 L 47 66 L 46 66 L 46 65 L 47 65 L 47 64 L 46 64 L 46 63 L 45 63 L 45 62 L 44 62 L 44 61 L 43 61 L 43 60 L 42 60 L 42 59 L 42 58 L 41 58 L 41 57 L 40 57 L 40 56 L 39 56 L 39 55 L 38 55 L 38 54 L 38 53 L 38 52 L 38 51 L 38 50 L 38 49 L 38 48 L 38 47 L 38 46 L 38 45 L 38 44 L 37 44 L 37 43 L 37 42 L 38 42 L 38 41 L 38 40 L 38 39 L 37 39 L 37 38 L 36 38 L 36 37 L 36 36 L 36 35 L 36 34 L 35 34 L 35 33 L 34 33 L 34 32 L 33 32 L 33 31 L 33 30 L 34 30 L 34 29 L 34 28 L 33 28 L 33 27 L 33 26 L 33 25 L 34 25 L 34 24 L 34 23 L 35 23 L 36 23 L 37 23 L 37 22 L 37 21 L 38 21 L 38 20 L 38 19 L 39 19 L 39 18 L 40 18 L 40 17 L 40 16 L 40 15 L 40 14 L 39 14 L 39 13 L 38 13 L 38 12 L 38 11 L 37 11 L 37 10 L 36 10 L 36 9 L 35 9 L 35 8 L 34 8 L 34 9 L 35 9 L 36 9 L 36 8 L 36 7 L 37 7 L 38 7 L 39 7 L 39 6 L 40 6 L 40 5 L 41 5 L 41 4 L 42 4 L 42 3 L 43 3 L 43 2 L 44 2 L 45 2 L 46 2 L 47 2 L 48 2 L 49 2 L 49 1 L 50 1 L 50 2 L 51 2 L 52 2 L 53 2 L 53 3 L 54 3 L 55 3 L 55 4 L 55 5 L 56 5 L 56 4 L 57 4 L 58 4 L 58 5 L 59 5 L 59 4 L 60 4 L 60 3 L 61 3 L 61 2 L 62 2 L 63 2 L 63 1 L 63 0z" style="stroke: black;fill:none;"/><path d=" M 32 64 L 33 64 L 33 65 L 34 65z" style="stroke: black;fill:none;"/><path d=" M 32 1 L 32 2 L 32 3 L 32 4 L 32 5 L 32 6 L 32 7 L 32 8z" style="stroke: black;fill:none;"/><path d=" M 32 2 L 32 3 L 32 4 L 32 5 L 32 6 L 32 7z" style="stroke: black;fill:none;"/><path d=" M 33 10 L 33 11 L 34 11 L 34 10z" style="stroke: black;fill:none;"/><path d=" M 32 11 L 32 12 L 33 12 L 33 11z" style="stroke: black;fill:none;"/><path d=" M 33 11 L 33 12 L 34 12 L 34 11z" style="stroke: black;fill:none;"/><path d=" M 33 12 L 33 13z" style="stroke: black;fill:none;"/><path d=" M 33 26 L 33 27 L 34 27 L 34 26z" style="stroke: black;fill:none;"/><path d=" M 33 30 L 34 30 L 34 29 L 34 28 L 34 27 L 34 26 L 33 26z" style="stroke: black;fill:none;"/><path d=" M 32 32 L 33 32 L 34 32 L 34 31 L 34 30 L 34 29 L 34 28 L 34 27 L 34 26 L 34 25 L 35 25 L 35 24 L 35 23 L 36 23 L 37 23 L 37 22 L 38 22 L 38 21 L 38 20 L 39 20 L 39 19 L 40 19 L 40 18 L 41 18 L 41 17 L 41 16 L 40 16 L 40 15 L 40 14 L 39 14 L 39 13 L 39 12 L 39 11 L 39 10 L 38 10 L 37 10 L 37 9 L 37 8 L 36 8z" style="stroke: black;fill:none;"/><path d=" M 33 47 L 34 47 L 34 48 L 35 48 L 35 49 L 35 50 L 35 51 L 34 51 L 34 50 L 33 50 L 33 51 L 34 51 L 34 50 L 34 49 L 34 48z" style="stroke: black;fill:none;"/><path d=" M 33 55 L 33 56z" style="stroke: black;fill:none;"/><path d=" M 33 56 L 33 55 L 34 55 L 35 55 L 36 55 L 37 55 L 38 55 L 38 54 L 38 53 L 38 52 L 38 51 L 38 50 L 38 49 L 38 48 L 38 47 L 38 46 L 38 45 L 38 44 L 38 43 L 37 43z" style="stroke: black;fill:none;"/><path d=" M 33 64 L 33 65 L 33 66 L 33 67 L 34 67 L 35 67 L 35 66z" style="stroke: black;fill:none;"/><path d=" M 33 1 L 33 2 L 33 3 L 33 4 L 33 5 L 33 6 L 33 7 L 33 8 L 33 9 L 34 9 L 34 10 L 35 10 L 35 11 L 34 11 L 34 10 L 33 10 L 33 9 L 34 9 L 34 10 L 35 10 L 35 11 L 34 11 L 34 12z" style="stroke: black;fill:none;"/><path d=" M 34 25 L 34 26 L 35 26 L 35 25z" style="stroke: black;fill:none;"/><path d=" M 34 27 L 35 27 L 35 26 L 35 25 L 35 24 L 36 24 L 36 25 L 36 26 L 36 27 L 37 27 L 37 26 L 37 25 L 37 24 L 37 23 L 38 23 L 38 22 L 38 21 L 39 21 L 39 20 L 39 19 L 40 19 L 41 19 L 41 18 L 41 17 L 41 16 L 41 15 L 40 15 L 40 14 L 39 14 L 39 13 L 39 12 L 39 11 L 39 10 L 38 10 L 38 11z" style="stroke: black;fill:none;"/><path d=" M 34 30 L 34 31 L 35 31 L 35 30z" style="stroke: black;fill:none;"/><path d=" M 34 31 L 35 31 L 35 30 L 35 29 L 35 28 L 35 27 L 35 26z" style="stroke: black;fill:none;"/><path d=" M 33 33 L 34 33 L 35 33 L 35 32 L 35 31 L 34 31z" style="stroke: black;fill:none;"/><path d=" M 34 49 L 34 50 L 35 50 L 35 51 L 34 51 L 34 50z" style="stroke: black;fill:none;"/><path d=" M 34 55 L 33 55z" style="stroke: black;fill:none;"/><path d=" M 35 24 L 36 24 L 36 25 L 36 26 L 36 27 L 37 27 L 37 26 L 37 25 L 37 24 L 37 23 L 38 23 L 38 22 L 38 21 L 39 21 L 39 20 L 39 19 L 40 19 L 41 19 L 41 18 L 41 17 L 41 16 L 41 15z" style="stroke: black;fill:none;"/><path d=" M 35 27 L 35 28 L 36 28 L 36 27z" style="stroke: black;fill:none;"/><path d=" M 35 29 L 35 30 L 36 30 L 36 29z" style="stroke: black;fill:none;"/><path d=" M 35 30 L 36 30 L 36 29 L 35 29 L 35 28 L 35 27 L 36 27 L 37 27 L 38 27 L 38 26 L 38 25 L 37 25 L 37 24 L 38 24 L 38 23 L 38 22 L 39 22 L 39 21 L 39 20 L 40 20 L 40 19 L 41 19 L 41 18 L 41 17 L 41 16 L 42 16 L 42 17 L 43 17 L 43 16 L 44 16 L 45 16 L 45 15 L 45 14 L 46 14 L 46 13 L 46 12 L 47 12 L 47 11 L 47 10 L 48 10 L 48 11 L 48 12 L 48 13 L 48 14 L 48 15 L 49 15 L 49 14 L 50 14 L 50 13 L 50 12 L 51 12 L 51 11 L 52 11 L 53 11 L 53 10 L 54 10 L 54 9 L 55 9 L 56 9 L 57 9 L 57 10 L 57 11 L 58 11 L 58 10 L 59 10 L 59 9 L 59 8 L 59 7 L 58 7 L 58 6 L 57 6 L 57 5 L 56 5 L 56 4 L 57 4 L 58 4 L 58 5 L 59 5 L 59 4 L 60 4 L 60 3 L 61 3 L 61 2 L 62 2 L 63 2 L 63 1z" style="stroke: black;fill:none;"/><path d=" M 35 32 L 36 32 L 37 32 L 38 32 L 39 32 L 39 33 L 39 34 L 40 34 L 40 33 L 41 33 L 42 33 L 42 32 L 43 32 L 43 31 L 44 31 L 45 31 L 46 31 L 47 31 L 48 31 L 49 31 L 50 31 L 51 31 L 52 31 L 53 31 L 54 31 L 54 32 L 55 32 L 55 31 L 55 30 L 55 29 L 55 28 L 54 28 L 54 27 L 53 27 L 53 26 L 53 25 L 52 25 L 52 24 L 51 24 L 51 23 L 52 23 L 52 22 L 51 22 L 51 21 L 50 21 L 50 20 L 50 19 L 49 19 L 48 19 L 48 18 L 47 18 L 47 17 L 46 17 L 46 16 L 45 16 L 45 15 L 45 14 L 46 14 L 46 13 L 46 12 L 47 12 L 47 11 L 47 10 L 48 10 L 48 11 L 48 12 L 48 13 L 48 14 L 48 15 L 49 15 L 49 14 L 50 14 L 50 13 L 50 12 L 51 12 L 51 11 L 52 11 L 53 11 L 53 10 L 54 10 L 54 9 L 55 9 L 56 9 L 57 9 L 57 10 L 57 11 L 58 11 L 58 10 L 59 10 L 59 9 L 59 8 L 59 7 L 58 7 L 58 6 L 57 6 L 57 5 L 56 5 L 55 5 L 55 4 L 54 4 L 54 3 L 53 3 L 53 2 L 52 2 L 51 2 L 50 2 L 50 1 L 49 1 L 49 2 L 50 2 L 51 2 L 52 2 L 52 3 L 53 3 L 54 3 L 55 3 L 55 4 L 55 5 L 56 5 L 57 5 L 57 4z" style="stroke: black;fill:none;"/><path d=" M 35 55 L 34 55z" style="stroke: black;fill:none;"/><path d=" M 35 67 L 36 67 L 36 68 L 37 68 L 37 69 L 37 70 L 38 70z" style="stroke: black;fill:none;"/><path d=" M 35 1 L 35 2 L 35 3 L 35 4 L 35 5 L 35 6 L 35 7z" style="stroke: black;fill:none;"/><path d=" M 36 8 L 37 8 L 37 7 L 38 7 L 39 7 L 40 7 L 40 6 L 41 6 L 41 5 L 42 5 L 42 4 L 43 4 L 43 3 L 44 3 L 44 2 L 45 2 L 46 2 L 47 2 L 48 2 L 49 2 L 50 2 L 50 3 L 51 3 L 52 3 L 53 3 L 53 4 L 54 4 L 54 5 L 55 5 L 55 6 L 56 6 L 57 6 L 57 5 L 58 5 L 59 5 L 59 6 L 60 6 L 61 6 L 61 7 L 61 8 L 61 9 L 61 10 L 60 10 L 60 9 L 59 9 L 59 8 L 59 7 L 59 6 L 58 6 L 58 5z" style="stroke: black;fill:none;"/><path d=" M 36 24 L 35 24z" style="stroke: black;fill:none;"/><path d=" M 36 28 L 36 29 L 37 29 L 37 28z" style="stroke: black;fill:none;"/><path d=" M 36 29 L 35 29z" style="stroke: black;fill:none;"/><path d=" M 36 30 L 37 30 L 37 29 L 37 28 L 36 28z" style="stroke: black;fill:none;"/><path d=" M 36 32 L 35 32z" style="stroke: black;fill:none;"/><path d=" M 36 33 L 36 34 L 37 34 L 37 33z" style="stroke: black;fill:none;"/><path d=" M 36 67 L 36 68 L 36 69 L 37 69 L 37 70 L 37 71 L 38 71 L 39 71 L 39 72 L 39 73 L 39 74 L 39 75 L 40 75z" style="stroke: black;fill:none;"/><path d=" M 37 8 L 37 9 L 38 9 L 38 8z" style="stroke: black;fill:none;"/><path d=" M 37 9 L 38 9 L 38 8 L 37 8z" style="stroke: black;fill:none;"/><path d=" M 37 27 L 37 28 L 37 29 L 38 29 L 38 28 L 38 27z" style="stroke: black;fill:none;"/><path d=" M 37 29 L 37 30 L 38 30 L 38 29z" style="stroke: black;fill:none;"/><path d=" M 37 30 L 38 30 L 38 29 L 38 28 L 38 27 L 38 26 L 38 25 L 38 24 L 38 23 L 39 23 L 39 22 L 39 21 L 40 21 L 40 20 L 41 20 L 41 19 L 42 19 L 42 18 L 42 17 L 42 16z" style="stroke: black;fill:none;"/><path d=" M 37 32 L 36 32 L 35 32z" style="stroke: black;fill:none;"/><path d=" M 37 33 L 36 33z" style="stroke: black;fill:none;"/><path d=" M 37 34 L 37 35 L 37 36 L 38 36 L 38 35 L 38 34z" style="stroke: black;fill:none;"/><path d=" M 37 35 L 37 36 L 38 36 L 38 35 L 38 34 L 37 34 L 37 33 L 36 33z" style="stroke: black;fill:none;"/><path d=" M 37 36 L 37 37 L 38 37 L 38 36z" style="stroke: black;fill:none;"/><path d=" M 37 37 L 37 38 L 38 38 L 38 37z" style="stroke: black;fill:none;"/><path d=" M 37 38 L 37 39 L 38 39 L 38 38z" style="stroke: black;fill:none;"/><path d=" M 37 43 L 38 43 L 38 42 L 39 42 L 39 41 L 39 40 L 38 40 L 38 39 L 38 38 L 37 38 L 37 37 L 37 36 L 37 35 L 37 34 L 37 33 L 36 33z" style="stroke: black;fill:none;"/><path d=" M 36 70 L 37 70 L 37 71 L 38 71 L 38 72 L 38 73 L 38 74 L 39 74 L 39 75 L 38 75 L 38 74 L 38 73 L 37 73 L 37 72 L 38 72 L 38 71z" style="stroke: black;fill:none;"/><path d=" M 38 8 L 38 9 L 39 9 L 39 8z" style="stroke: black;fill:none;"/><path d=" M 38 10 L 38 11z" style="stroke: black;fill:none;"/><path d=" M 38 24 L 38 25 L 39 25 L 39 24 L 39 23 L 39 22 L 40 22 L 40 21 L 40 20 L 41 20 L 42 20 L 42 19 L 42 18 L 42 17 L 43 17 L 43 16 L 44 16 L 45 16 L 45 15 L 46 15 L 46 14 L 46 13 L 47 13 L 47 12 L 48 12 L 48 13 L 48 14 L 48 15 L 49 15 L 50 15 L 50 14 L 50 13 L 51 13 L 51 12 L 52 12 L 52 11 L 53 11 L 54 11 L 54 10z" style="stroke: black;fill:none;"/><path d=" M 38 25 L 39 25 L 39 24 L 39 23 L 39 22 L 40 22 L 40 21 L 40 20 L 41 20 L 42 20 L 42 19 L 42 18 L 42 17 L 43 17 L 44 17 L 44 16 L 45 16 L 46 16 L 46 15 L 46 14 L 47 14 L 47 13 L 47 12z" style="stroke: black;fill:none;"/><path d=" M 38 29 L 39 29 L 39 28 L 39 27 L 39 26 L 39 25 L 39 24 L 39 23 L 40 23 L 40 22 L 40 21 L 41 21 L 41 20 L 42 20 L 42 19 L 42 18 L 43 18 L 43 17 L 44 17 L 45 17 L 46 17 L 46 16 L 46 15z" style="stroke: black;fill:none;"/><path d=" M 38 32 L 37 32z" style="stroke: black;fill:none;"/><path d=" M 38 33 L 38 34 L 39 34 L 39 33 L 39 32 L 38 32z" style="stroke: black;fill:none;"/><path d=" M 38 34 L 38 35 L 39 35 L 39 34z" style="stroke: black;fill:none;"/><path d=" M 38 36 L 38 37 L 39 37 L 39 36z" style="stroke: black;fill:none;"/><path d=" M 38 37 L 37 37z" style="stroke: black;fill:none;"/><path d=" M 38 39 L 39 39 L 39 38 L 39 37 L 39 36 L 39 35 L 39 34 L 40 34 L 40 33 L 41 33 L 42 33 L 42 32 L 43 32 L 43 31 L 44 31 L 45 31 L 46 31 L 47 31 L 48 31 L 49 31 L 50 31 L 51 31 L 52 31 L 53 31 L 54 31 L 54 32 L 55 32 L 55 31 L 55 30 L 55 29 L 55 28 L 54 28 L 54 27 L 53 27 L 53 26 L 53 25 L 52 25 L 52 24 L 51 24 L 51 23 L 52 23 L 52 22 L 51 22 L 51 21 L 50 21 L 50 20 L 50 19 L 49 19 L 48 19 L 48 18 L 47 18 L 47 17 L 46 17 L 46 16 L 47 16 L 47 15 L 47 14 L 47 13z" style="stroke: black;fill:none;"/><path d=" M 38 43 L 38 44 L 39 44 L 39 43z" style="stroke: black;fill:none;"/><path d=" M 38 44 L 38 45 L 38 46 L 38 47 L 38 48 L 39 48 L 40 48 L 40 49 L 40 50 L 41 50 L 41 51 L 40 51 L 40 50 L 39 50 L 39 49 L 38 49 L 38 50 L 39 50 L 39 49 L 39 48 L 40 48 L 40 49 L 40 50 L 41 50 L 41 51 L 40 51 L 40 50 L 39 50 L 39 49 L 39 48z" style="stroke: black;fill:none;"/><path d=" M 38 51 L 38 52 L 39 52 L 39 51z" style="stroke: black;fill:none;"/><path d=" M 38 53 L 39 53 L 39 52 L 39 51z" style="stroke: black;fill:none;"/><path d=" M 38 72 L 38 73z" style="stroke: black;fill:none;"/><path d=" M 39 7 L 39 8 L 40 8 L 40 7z" style="stroke: black;fill:none;"/><path d=" M 39 8 L 38 8z" style="stroke: black;fill:none;"/><path d=" M 39 9 L 39 8 L 40 8 L 40 7 L 40 6 L 41 6 L 41 5 L 42 5 L 42 4 L 43 4 L 43 3 L 44 3 L 45 3 L 46 3 L 47 3 L 48 3 L 49 3 L 50 3 L 51 3 L 52 3 L 52 4 L 53 4 L 54 4 L 54 5 L 54 6 L 55 6 L 56 6z" style="stroke: black;fill:none;"/><path d=" M 39 13 L 40 13z" style="stroke: black;fill:none;"/><path d=" M 39 29 L 39 28 L 39 27 L 39 26z" style="stroke: black;fill:none;"/><path d=" M 39 35 L 39 36 L 40 36 L 40 35z" style="stroke: black;fill:none;"/><path d=" M 39 36 L 39 37 L 40 37 L 40 36z" style="stroke: black;fill:none;"/><path d=" M 39 37 L 39 38 L 39 39 L 40 39 L 40 38 L 40 37z" style="stroke: black;fill:none;"/><path d=" M 39 39 L 39 40 L 40 40 L 40 39z" style="stroke: black;fill:none;"/><path d=" M 39 40 L 39 41 L 40 41 L 40 40z" style="stroke: black;fill:none;"/><path d=" M 39 41 L 39 42 L 40 42 L 40 43 L 40 44 L 39 44 L 39 43 L 38 43z" style="stroke: black;fill:none;"/><path d=" M 39 42 L 39 43 L 40 43 L 40 42z" style="stroke: black;fill:none;"/><path d=" M 39 43 L 39 44 L 40 44 L 40 43z" style="stroke: black;fill:none;"/><path d=" M 39 52 L 39 53 L 40 53 L 40 54 L 40 55 L 40 56 L 41 56 L 42 56 L 42 57 L 42 58 L 42 59 L 43 59 L 44 59 L 44 60 L 44 61 L 45 61 L 45 62 L 46 62 L 47 62 L 47 61 L 48 61 L 48 62 L 47 62 L 47 61 L 48 61 L 48 62 L 47 62 L 46 62 L 45 62 L 45 61 L 44 61 L 44 60 L 43 60 L 43 59 L 44 59 L 44 60 L 43 60 L 43 59z" style="stroke: black;fill:none;"/><path d=" M 39 53 L 39 54 L 40 54 L 40 53z" style="stroke: black;fill:none;"/><path d=" M 39 54 L 39 55 L 40 55 L 40 54z" style="stroke: black;fill:none;"/><path d=" M 39 55 L 39 56 L 40 56 L 40 55z" style="stroke: black;fill:none;"/><path d=" M 38 56 L 39 56 L 39 57 L 40 57 L 41 57 L 41 56 L 42 56 L 42 57 L 41 57 L 41 56z" style="stroke: black;fill:none;"/><path d=" M 40 7 L 41 7 L 41 6 L 42 6 L 42 5 L 43 5 L 43 4 L 44 4 L 44 3 L 45 3 L 46 3 L 47 3 L 48 3 L 49 3 L 50 3 L 51 3 L 52 3 L 52 4 L 53 4 L 54 4 L 54 5 L 54 6 L 55 6 L 56 6z" style="stroke: black;fill:none;"/><path d=" M 40 22 L 40 23 L 41 23 L 41 22z" style="stroke: black;fill:none;"/><path d=" M 40 23 L 40 24 L 41 24 L 41 23z" style="stroke: black;fill:none;"/><path d=" M 40 24 L 40 25 L 41 25 L 41 24z" style="stroke: black;fill:none;"/><path d=" M 40 34 L 40 35 L 40 36 L 41 36 L 41 37 L 42 37 L 42 38 L 43 38 L 43 39 L 44 39 L 44 38 L 45 38 L 45 39 L 45 40 L 46 40 L 47 40 L 47 41 L 48 41 L 49 41 L 49 42 L 50 42 L 51 42 L 51 41 L 52 41 L 53 41 L 53 40 L 52 40 L 52 39 L 53 39 L 53 38 L 53 37 L 53 36 L 52 36 L 52 35 L 51 35 L 50 35 L 49 35 L 49 34 L 48 34 L 47 34 L 46 34 L 46 33 L 45 33 L 45 32 L 44 32 L 44 31 L 45 31 L 45 32 L 46 32 L 47 32 L 47 31z" style="stroke: black;fill:none;"/><path d=" M 40 35 L 39 35z" style="stroke: black;fill:none;"/><path d=" M 40 36 L 40 37 L 41 37 L 41 36z" style="stroke: black;fill:none;"/><path d=" M 40 37 L 40 38 L 41 38 L 41 37z" style="stroke: black;fill:none;"/><path d=" M 40 39 L 39 39 L 39 40 L 40 40z" style="stroke: black;fill:none;"/><path d=" M 40 41 L 39 41 L 39 42z" style="stroke: black;fill:none;"/><path d=" M 39 57 L 40 57 L 40 58 L 41 58 L 41 59 L 41 60 L 42 60 L 42 61 L 43 61 L 43 62 L 44 62 L 44 63 L 45 63 L 46 63 L 46 62z" style="stroke: black;fill:none;"/><path d=" M 41 6 L 41 7z" style="stroke: black;fill:none;"/><path d=" M 41 21 L 41 22 L 42 22 L 42 21z" style="stroke: black;fill:none;"/><path d=" M 41 22 L 41 23 L 41 24 L 42 24 L 42 23 L 42 22z" style="stroke: black;fill:none;"/><path d=" M 41 24 L 40 24 L 40 23z" style="stroke: black;fill:none;"/><path d=" M 40 25 L 40 24z" style="stroke: black;fill:none;"/><path d=" M 41 25 L 41 26 L 42 26 L 42 25z" style="stroke: black;fill:none;"/><path d=" M 41 37 L 41 38 L 42 38 L 42 37z" style="stroke: black;fill:none;"/><path d=" M 40 38 L 40 39 L 41 39 L 42 39 L 42 38 L 41 38z" style="stroke: black;fill:none;"/><path d=" M 41 39 L 41 40 L 42 40 L 42 39z" style="stroke: black;fill:none;"/><path d=" M 40 58 L 41 58 L 41 59 L 41 60 L 42 60 L 42 61 L 43 61 L 43 62 L 44 62 L 44 63 L 45 63 L 45 64 L 46 64z" style="stroke: black;fill:none;"/><path d=" M 42 5 L 42 6 L 43 6 L 43 5z" style="stroke: black;fill:none;"/><path d=" M 42 6 L 43 6 L 43 5 L 43 4 L 44 4 L 44 3 L 45 3 L 46 3 L 47 3 L 48 3 L 49 3 L 50 3 L 51 3 L 51 4 L 52 4 L 53 4 L 53 5 L 54 5 L 54 6 L 53 6 L 53 5 L 52 5 L 52 4 L 51 4 L 50 4z" style="stroke: black;fill:none;"/><path d=" M 42 20 L 42 21 L 43 21 L 43 20z" style="stroke: black;fill:none;"/><path d=" M 42 21 L 41 21 L 41 22 L 42 22z" style="stroke: black;fill:none;"/><path d=" M 42 22 L 42 23 L 43 23 L 43 22z" style="stroke: black;fill:none;"/><path d=" M 42 24 L 42 25 L 43 25 L 43 24z" style="stroke: black;fill:none;"/><path d=" M 42 25 L 41 25 L 41 26 L 42 26z" style="stroke: black;fill:none;"/><path d=" M 42 26 L 42 25 L 41 25z" style="stroke: black;fill:none;"/><path d=" M 42 33 L 42 34 L 43 34 L 43 33z" style="stroke: black;fill:none;"/><path d=" M 42 38 L 42 39 L 43 39 L 43 38z" style="stroke: black;fill:none;"/><path d=" M 42 39 L 41 39 L 41 40 L 42 40z" style="stroke: black;fill:none;"/><path d=" M 43 5 L 44 5 L 44 4 L 45 4 L 45 3 L 46 3 L 47 3 L 47 4 L 46 4 L 45 4 L 44 4 L 44 5 L 45 5 L 45 4 L 46 4 L 47 4z" style="stroke: black;fill:none;"/><path d=" M 43 18 L 43 19 L 44 19 L 44 18z" style="stroke: black;fill:none;"/><path d=" M 43 19 L 43 20 L 44 20 L 44 19z" style="stroke: black;fill:none;"/><path d=" M 43 20 L 43 21 L 44 21 L 44 20z" style="stroke: black;fill:none;"/><path d=" M 43 21 L 42 21 L 41 21z" style="stroke: black;fill:none;"/><path d=" M 43 22 L 43 23 L 44 23 L 44 22z" style="stroke: black;fill:none;"/><path d=" M 42 23 L 42 24 L 43 24 L 43 23z" style="stroke: black;fill:none;"/><path d=" M 43 23 L 43 24 L 44 24 L 44 23z" style="stroke: black;fill:none;"/><path d=" M 43 24 L 42 24z" style="stroke: black;fill:none;"/><path d=" M 43 25 L 43 26 L 44 26 L 44 25z" style="stroke: black;fill:none;"/><path d=" M 43 26 L 43 25 L 44 25 L 44 24 L 44 23 L 44 22 L 43 22 L 43 21 L 43 20 L 43 19 L 43 18 L 44 18 L 44 17 L 45 17 L 46 17 L 47 17 L 47 16 L 47 15 L 47 14 L 47 13z" style="stroke: black;fill:none;"/><path d=" M 43 32 L 43 33 L 44 33 L 44 32z" style="stroke: black;fill:none;"/><path d=" M 43 33 L 42 33 L 42 34 L 43 34z" style="stroke: black;fill:none;"/><path d=" M 43 39 L 43 40 L 44 40 L 44 39z" style="stroke: black;fill:none;"/><path d=" M 44 5 L 45 5 L 45 4 L 46 4z" style="stroke: black;fill:none;"/><path d=" M 44 17 L 44 18 L 45 18 L 45 17z" style="stroke: black;fill:none;"/><path d=" M 44 18 L 43 18 L 43 19 L 44 19z" style="stroke: black;fill:none;"/><path d=" M 44 19 L 44 20 L 45 20 L 45 19z" style="stroke: black;fill:none;"/><path d=" M 44 20 L 44 21 L 45 21 L 45 20z" style="stroke: black;fill:none;"/><path d=" M 44 21 L 44 22 L 45 22 L 45 21z" style="stroke: black;fill:none;"/><path d=" M 44 22 L 43 22z" style="stroke: black;fill:none;"/><path d=" M 44 23 L 44 24 L 45 24 L 45 23z" style="stroke: black;fill:none;"/><path d=" M 44 24 L 44 25 L 45 25 L 45 24z" style="stroke: black;fill:none;"/><path d=" M 44 25 L 43 25 L 43 26 L 44 26z" style="stroke: black;fill:none;"/><path d=" M 44 26 L 45 26 L 46 26 L 46 25 L 45 25 L 45 24 L 45 23 L 45 22 L 45 21 L 44 21z" style="stroke: black;fill:none;"/><path d=" M 44 32 L 43 32 L 43 33 L 44 33z" style="stroke: black;fill:none;"/><path d=" M 44 33 L 44 32 L 45 32 L 46 32 L 47 32 L 48 32 L 49 32 L 50 32 L 50 31 L 51 31 L 52 31 L 53 31 L 53 32 L 54 32 L 55 32 L 55 31 L 55 30 L 56 30 L 56 29 L 56 28 L 56 27 L 56 26 L 55 26 L 55 25 L 54 25 L 53 25 L 53 24 L 52 24 L 52 23 L 52 22 L 52 21 L 51 21 L 51 20 L 51 19 L 50 19 L 50 18 L 49 18 L 49 17 L 48 17 L 48 16 L 47 16 L 47 15 L 47 14z" style="stroke: black;fill:none;"/><path d=" M 44 39 L 43 39 L 43 40 L 44 40z" style="stroke: black;fill:none;"/><path d=" M 43 40 L 43 41 L 44 41 L 44 40z" style="stroke: black;fill:none;"/><path d=" M 44 40 L 44 41 L 43 41z" style="stroke: black;fill:none;"/><path d=" M 45 17 L 45 18 L 46 18 L 47 18 L 47 17 L 47 16 L 48 16 L 48 15 L 49 15 L 50 15 L 50 14 L 51 14 L 51 13 L 51 12 L 52 12 L 53 12 L 53 11 L 54 11 L 55 11 L 55 10 L 55 9z" style="stroke: black;fill:none;"/><path d=" M 45 18 L 46 18 L 47 18 L 48 18 L 48 17 L 48 16 L 49 16 L 50 16 L 50 15 L 51 15 L 51 14 L 51 13 L 52 13 L 52 12 L 53 12 L 54 12 L 54 11 L 55 11 L 55 10 L 56 10 L 57 10 L 57 11 L 58 11 L 59 11 L 59 10 L 60 10 L 60 9 L 60 8 L 60 7 L 59 7 L 59 6 L 58 6z" style="stroke: black;fill:none;"/><path d=" M 45 19 L 45 20 L 46 20 L 46 19z" style="stroke: black;fill:none;"/><path d=" M 45 20 L 45 21 L 46 21 L 46 20z" style="stroke: black;fill:none;"/><path d=" M 45 22 L 45 23 L 46 23 L 46 22z" style="stroke: black;fill:none;"/><path d=" M 45 23 L 45 24 L 46 24 L 46 23z" style="stroke: black;fill:none;"/><path d=" M 45 25 L 46 25 L 46 24 L 46 23 L 46 22 L 45 22z" style="stroke: black;fill:none;"/><path d=" M 45 26 L 46 26 L 46 25 L 46 24 L 46 23 L 46 22 L 46 21 L 46 20 L 46 19 L 45 19z" style="stroke: black;fill:none;"/><path d=" M 45 32 L 45 33 L 46 33 L 46 32z" style="stroke: black;fill:none;"/><path d=" M 45 33 L 45 34 L 46 34 L 46 33z" style="stroke: black;fill:none;"/><path d=" M 44 38 L 44 39 L 45 39 L 45 38z" style="stroke: black;fill:none;"/><path d=" M 45 39 L 45 40 L 46 40 L 47 40 L 47 41 L 48 41 L 49 41 L 49 42 L 50 42 L 51 42 L 51 41 L 52 41 L 53 41 L 53 40 L 52 40 L 52 39 L 53 39 L 53 38 L 53 37 L 53 36 L 52 36 L 52 35 L 51 35 L 50 35 L 49 35 L 49 34 L 48 34 L 47 34 L 46 34 L 45 34 L 45 33z" style="stroke: black;fill:none;"/><path d=" M 45 40 L 45 41 L 46 41 L 46 40z" style="stroke: black;fill:none;"/><path d=" M 46 18 L 46 19 L 47 19 L 48 19 L 48 18 L 48 17 L 48 16 L 49 16 L 50 16 L 50 15 L 51 15 L 51 14 L 51 13 L 52 13 L 52 12 L 53 12 L 54 12 L 54 11 L 55 11 L 55 10 L 56 10z" style="stroke: black;fill:none;"/><path d=" M 46 19 L 46 20 L 47 20 L 47 19z" style="stroke: black;fill:none;"/><path d=" M 46 21 L 47 21 L 47 22 L 48 22 L 48 23 L 47 23 L 47 24 L 47 25 L 47 26 L 47 27 L 46 27 L 46 26 L 46 25 L 46 24 L 47 24 L 47 23 L 48 23 L 48 22 L 47 22 L 47 21z" style="stroke: black;fill:none;"/><path d=" M 46 34 L 46 35 L 47 35 L 47 34z" style="stroke: black;fill:none;"/><path d=" M 45 41 L 45 42 L 46 42 L 46 41z" style="stroke: black;fill:none;"/><path d=" M 46 41 L 45 41 L 45 40z" style="stroke: black;fill:none;"/><path d=" M 45 42 L 46 42 L 47 42 L 47 41 L 48 41 L 48 42 L 49 42 L 50 42 L 51 42 L 52 42 L 52 41 L 53 41 L 53 40 L 53 39 L 54 39 L 54 38 L 54 37 L 53 37 L 53 36 L 52 36 L 52 35 L 51 35 L 50 35 L 49 35 L 48 35 L 48 34z" style="stroke: black;fill:none;"/><path d=" M 46 42 L 46 43 L 47 43 L 48 43 L 48 42 L 47 42z" style="stroke: black;fill:none;"/><path d=" M 47 19 L 47 20z" style="stroke: black;fill:none;"/><path d=" M 47 23 L 47 24 L 47 25 L 47 26 L 47 27 L 46 27z" style="stroke: black;fill:none;"/><path d=" M 47 32 L 48 32 L 49 32 L 50 32 L 51 32 L 52 32 L 53 32 L 54 32 L 55 32 L 56 32 L 56 31 L 56 30 L 56 29 L 56 28 L 56 27 L 56 26 L 55 26 L 55 25 L 54 25 L 53 25 L 53 24 L 52 24 L 52 23 L 52 22 L 52 21 L 51 21 L 51 20 L 51 19 L 50 19 L 50 18 L 49 18 L 49 17 L 48 17z" style="stroke: black;fill:none;"/><path d=" M 46 35 L 47 35 L 48 35 L 49 35 L 49 36 L 50 36 L 51 36z" style="stroke: black;fill:none;"/><path d=" M 47 35 L 47 36 L 48 36 L 49 36 L 50 36 L 51 36z" style="stroke: black;fill:none;"/><path d=" M 47 36 L 47 35 L 48 35z" style="stroke: black;fill:none;"/><path d=" M 47 42 L 46 42 L 46 43 L 47 43 L 48 43 L 48 42z" style="stroke: black;fill:none;"/><path d=" M 47 65 L 47 66 L 48 66 L 48 65z" style="stroke: black;fill:none;"/><path d=" M 47 66 L 48 66 L 48 65 L 47 65z" style="stroke: black;fill:none;"/><path d=" M 48 36 L 49 36 L 50 36 L 51 36z" style="stroke: black;fill:none;"/><path d=" M 48 42 L 48 43 L 49 43 L 49 42z" style="stroke: black;fill:none;"/><path d=" M 48 65 L 48 66 L 49 66 L 49 65z" style="stroke: black;fill:none;"/><path d=" M 48 66 L 48 67 L 49 67 L 49 66z" style="stroke: black;fill:none;"/><path d=" M 48 68 L 49 68 L 49 67 L 48 67z" style="stroke: black;fill:none;"/><path d=" M 49 16 L 49 17 L 50 17 L 50 16z" style="stroke: black;fill:none;"/><path d=" M 49 17 L 49 18 L 50 18 L 50 17z" style="stroke: black;fill:none;"/><path d=" M 49 27 L 49 28 L 50 28 L 51 28 L 51 27 L 50 27z" style="stroke: black;fill:none;"/><path d=" M 49 36 L 49 37 L 50 37 L 51 37 L 51 38 L 50 38 L 49 38 L 49 37z" style="stroke: black;fill:none;"/><path d=" M 49 37 L 49 38 L 50 38 L 51 38 L 51 37 L 50 37z" style="stroke: black;fill:none;"/><path d=" M 49 43 L 50 43 L 51 43 L 51 42 L 52 42 L 53 42 L 53 41 L 53 40 L 53 39 L 54 39 L 54 38 L 54 37 L 54 36 L 53 36 L 53 35 L 52 35 L 52 34 L 53 34 L 53 33 L 53 32 L 52 32 L 51 32 L 50 32z" style="stroke: black;fill:none;"/><path d=" M 49 55 L 49 56 L 50 56 L 51 56 L 51 55 L 50 55z" style="stroke: black;fill:none;"/><path d=" M 49 56 L 49 55 L 50 55 L 51 55 L 51 54 L 51 53 L 52 53 L 52 54 L 53 54 L 53 55 L 54 55 L 55 55 L 55 54 L 55 53 L 56 53 L 56 52 L 56 51 L 55 51 L 55 50 L 54 50 L 54 49 L 53 49 L 53 48 L 52 48 L 52 47 L 51 47 L 51 46 L 50 46 L 50 47 L 51 47 L 51 46 L 50 46 L 50 47 L 51 47 L 51 46 L 51 45 L 50 45 L 50 44 L 50 43 L 49 43z" style="stroke: black;fill:none;"/><path d=" M 49 65 L 49 66 L 50 66 L 51 66 L 51 67 L 51 68 L 52 68 L 53 68 L 53 69 L 52 69 L 52 68 L 51 68 L 51 67 L 51 66 L 50 66 L 49 66z" style="stroke: black;fill:none;"/><path d=" M 48 67 L 48 68 L 49 68 L 49 67z" style="stroke: black;fill:none;"/><path d=" M 49 67 L 49 68 L 50 68 L 50 67z" style="stroke: black;fill:none;"/><path d=" M 49 68 L 49 69 L 50 69 L 50 68z" style="stroke: black;fill:none;"/><path d=" M 49 69 L 49 70 L 50 70 L 50 69z" style="stroke: black;fill:none;"/><path d=" M 50 16 L 49 16z" style="stroke: black;fill:none;"/><path d=" M 50 17 L 50 18 L 51 18 L 51 17z" style="stroke: black;fill:none;"/><path d=" M 50 27 L 49 27 L 49 28 L 50 28 L 51 28 L 51 27z" style="stroke: black;fill:none;"/><path d=" M 50 28 L 50 29 L 51 29 L 51 28z" style="stroke: black;fill:none;"/><path d=" M 50 30 L 50 29 L 51 29 L 51 28 L 51 27 L 51 26 L 51 25 L 52 25z" style="stroke: black;fill:none;"/><path d=" M 50 43 L 50 44 L 50 45 L 51 45 L 51 44 L 51 43z" style="stroke: black;fill:none;"/><path d=" M 50 56 L 51 56 L 51 55 L 51 54 L 51 53 L 52 53 L 52 54 L 53 54 L 53 55 L 54 55 L 55 55 L 55 54 L 55 53 L 56 53 L 56 52 L 56 51 L 55 51 L 55 50 L 54 50 L 54 49 L 53 49 L 53 48 L 52 48 L 52 47 L 52 46 L 51 46 L 51 45 L 51 44 L 51 43 L 50 43z" style="stroke: black;fill:none;"/><path d=" M 50 66 L 50 67 L 50 68 L 51 68 L 52 68 L 53 68 L 53 69 L 52 69z" style="stroke: black;fill:none;"/><path d=" M 50 67 L 50 68 L 50 69 L 51 69 L 51 70 L 52 70 L 52 71 L 52 72 L 52 73 L 53 73 L 53 74 L 53 75 L 54 75 L 55 75 L 56 75 L 57 75 L 58 75 L 58 74 L 58 73 L 58 72 L 59 72 L 59 71 L 58 71 L 58 70 L 58 69 L 57 69 L 57 68 L 58 68 L 58 67 L 57 67 L 57 66 L 56 66 L 56 65 L 56 64 L 55 64 L 55 63 L 55 62 L 54 62 L 54 61 L 55 61 L 56 61 L 56 62 L 56 63 L 57 63 L 57 64 L 57 65 L 58 65 L 59 65 L 59 66 L 60 66 L 60 67 L 60 68 L 60 69 L 61 69 L 61 70 L 60 70 L 60 69 L 59 69 L 59 68 L 58 68 L 58 67 L 57 67 L 57 66 L 56 66 L 56 65 L 56 64 L 55 64 L 55 63 L 55 62 L 54 62 L 54 61 L 55 61 L 56 61 L 56 62 L 56 63 L 57 63 L 57 64 L 57 65 L 58 65 L 59 65 L 59 66 L 60 66 L 60 67 L 60 68 L 60 69 L 61 69 L 61 70 L 60 70 L 60 69 L 59 69 L 59 68 L 58 68 L 58 67 L 57 67 L 57 66 L 56 66 L 56 65 L 56 64 L 56 63 L 55 63z" style="stroke: black;fill:none;"/><path d=" M 50 69 L 50 70 L 51 70 L 51 69z" style="stroke: black;fill:none;"/><path d=" M 50 70 L 50 71 L 51 71 L 51 70z" style="stroke: black;fill:none;"/><path d=" M 50 71 L 51 71 L 51 70 L 50 70z" style="stroke: black;fill:none;"/><path d=" M 50 4 L 51 4z" style="stroke: black;fill:none;"/><path d=" M 51 15 L 51 16 L 52 16 L 52 15z" style="stroke: black;fill:none;"/><path d=" M 51 16 L 51 17 L 52 17 L 52 16z" style="stroke: black;fill:none;"/><path d=" M 51 17 L 50 17z" style="stroke: black;fill:none;"/><path d=" M 51 18 L 51 19 L 52 19 L 52 18z" style="stroke: black;fill:none;"/><path d=" M 51 19 L 51 20 L 52 20 L 52 19z" style="stroke: black;fill:none;"/><path d=" M 51 27 L 52 27 L 53 27 L 54 27 L 54 26 L 54 25 L 55 25 L 55 24 L 54 24 L 54 23 L 53 23 L 53 22 L 53 21 L 52 21 L 52 20 L 52 19 L 52 18 L 51 18 L 51 17 L 51 16 L 51 15 L 52 15 L 52 14 L 53 14 L 53 13 L 52 13z" style="stroke: black;fill:none;"/><path d=" M 50 29 L 50 30 L 51 30 L 52 30 L 52 29 L 51 29z" style="stroke: black;fill:none;"/><path d=" M 51 30 L 52 30 L 52 29 L 52 28 L 52 27 L 53 27 L 54 27 L 54 26 L 55 26 L 55 25 L 55 24 L 54 24 L 54 23 L 53 23 L 53 22 L 53 21 L 52 21 L 52 20 L 52 19 L 52 18 L 51 18z" style="stroke: black;fill:none;"/><path d=" M 51 32 L 52 32 L 53 32 L 53 33 L 54 33z" style="stroke: black;fill:none;"/><path d=" M 51 43 L 51 44 L 52 44 L 52 43z" style="stroke: black;fill:none;"/><path d=" M 51 45 L 52 45 L 52 44 L 52 43 L 52 42 L 53 42 L 54 42 L 54 41 L 54 40 L 54 39 L 54 38 L 54 37 L 54 36 L 54 35 L 53 35 L 53 34 L 52 34z" style="stroke: black;fill:none;"/><path d=" M 51 56 L 51 57 L 52 57 L 53 57 L 53 56 L 53 55 L 52 55 L 52 56z" style="stroke: black;fill:none;"/><path d=" M 51 71 L 51 72 L 52 72 L 52 71z" style="stroke: black;fill:none;"/><path d=" M 51 72 L 52 72 L 52 71 L 51 71z" style="stroke: black;fill:none;"/><path d=" M 51 74 L 51 75 L 52 75 L 52 74z" style="stroke: black;fill:none;"/><path d=" M 52 15 L 52 16 L 53 16 L 53 15z" style="stroke: black;fill:none;"/><path d=" M 52 16 L 51 16z" style="stroke: black;fill:none;"/><path d=" M 52 17 L 52 18 L 53 18 L 53 17z" style="stroke: black;fill:none;"/><path d=" M 52 20 L 53 20 L 53 19 L 53 18 L 53 17 L 52 17z" style="stroke: black;fill:none;"/><path d=" M 51 25 L 51 26z" style="stroke: black;fill:none;"/><path d=" M 52 27 L 52 28 L 53 28 L 54 28 L 55 28 L 55 27 L 55 26 L 54 26z" style="stroke: black;fill:none;"/><path d=" M 52 28 L 52 29z" style="stroke: black;fill:none;"/><path d=" M 52 42 L 52 43 L 53 43 L 53 42z" style="stroke: black;fill:none;"/><path d=" M 52 43 L 52 44 L 53 44 L 53 43z" style="stroke: black;fill:none;"/><path d=" M 52 44 L 52 45 L 53 45 L 53 44z" style="stroke: black;fill:none;"/><path d=" M 52 45 L 52 46 L 53 46 L 54 46 L 54 45 L 53 45 L 53 44 L 53 43 L 53 42 L 54 42 L 54 41 L 54 40 L 54 39 L 55 39 L 55 38 L 55 37 L 54 37 L 54 36 L 54 35 L 53 35 L 53 34 L 53 33 L 54 33z" style="stroke: black;fill:none;"/><path d=" M 52 46 L 52 47 L 53 47 L 53 46z" style="stroke: black;fill:none;"/><path d=" M 52 47 L 52 48 L 53 48 L 53 47z" style="stroke: black;fill:none;"/><path d=" M 51 54 L 52 54z" style="stroke: black;fill:none;"/><path d=" M 52 56 L 51 56 L 51 57 L 52 57 L 53 57 L 53 56 L 53 55 L 52 55z" style="stroke: black;fill:none;"/><path d=" M 52 74 L 52 75 L 53 75 L 53 74z" style="stroke: black;fill:none;"/><path d=" M 52 75 L 52 74 L 52 73 L 53 73 L 53 74 L 53 75 L 54 75 L 55 75 L 56 75 L 57 75 L 58 75 L 58 74 L 58 73 L 58 72 L 59 72 L 59 71 L 58 71 L 58 70 L 58 69 L 57 69 L 57 68 L 58 68 L 58 67 L 58 66 L 57 66 L 57 65 L 57 64 L 56 64 L 56 63z" style="stroke: black;fill:none;"/><path d=" M 52 5 L 53 5 L 53 6z" style="stroke: black;fill:none;"/><path d=" M 53 12 L 53 13 L 54 13 L 54 12z" style="stroke: black;fill:none;"/><path d=" M 53 13 L 53 14 L 54 14 L 54 13z" style="stroke: black;fill:none;"/><path d=" M 52 14 L 52 15 L 53 15 L 53 16 L 54 16 L 55 16 L 55 15 L 55 14 L 54 14 L 54 13 L 53 13 L 53 14 L 54 14 L 54 13 L 54 12 L 55 12 L 55 13 L 56 13 L 57 13 L 57 12 L 57 11 L 56 11z" style="stroke: black;fill:none;"/><path d=" M 53 16 L 53 17 L 54 17 L 54 16z" style="stroke: black;fill:none;"/><path d=" M 53 17 L 52 17z" style="stroke: black;fill:none;"/><path d=" M 53 18 L 53 19 L 54 19 L 54 18z" style="stroke: black;fill:none;"/><path d=" M 53 19 L 53 20 L 54 20 L 54 19z" style="stroke: black;fill:none;"/><path d=" M 53 20 L 53 21 L 54 21 L 54 20z" style="stroke: black;fill:none;"/><path d=" M 53 21 L 53 22 L 54 22 L 54 21z" style="stroke: black;fill:none;"/><path d=" M 53 22 L 53 23 L 54 23 L 54 22z" style="stroke: black;fill:none;"/><path d=" M 53 23 L 53 24 L 54 24 L 54 23z" style="stroke: black;fill:none;"/><path d=" M 53 28 L 52 28z" style="stroke: black;fill:none;"/><path d=" M 53 34 L 53 35 L 54 35 L 54 34z" style="stroke: black;fill:none;"/><path d=" M 53 43 L 53 44 L 54 44 L 54 43z" style="stroke: black;fill:none;"/><path d=" M 53 45 L 52 45 L 52 46 L 53 46 L 54 46 L 54 45z" style="stroke: black;fill:none;"/><path d=" M 53 47 L 53 48 L 54 48 L 54 47z" style="stroke: black;fill:none;"/><path d=" M 52 49 L 52 50 L 53 50 L 54 50 L 54 49 L 54 48 L 54 47 L 53 47z" style="stroke: black;fill:none;"/><path d=" M 52 50 L 52 49z" style="stroke: black;fill:none;"/><path d=" M 53 57 L 54 57 L 54 56 L 54 55z" style="stroke: black;fill:none;"/><path d=" M 52 73 L 52 74z" style="stroke: black;fill:none;"/><path d=" M 54 16 L 53 16z" style="stroke: black;fill:none;"/><path d=" M 54 17 L 54 18 L 55 18 L 55 17z" style="stroke: black;fill:none;"/><path d=" M 54 18 L 53 18 L 53 19 L 54 19z" style="stroke: black;fill:none;"/><path d=" M 54 19 L 54 20 L 55 20 L 55 19z" style="stroke: black;fill:none;"/><path d=" M 54 20 L 53 20z" style="stroke: black;fill:none;"/><path d=" M 54 21 L 54 22 L 55 22 L 55 21z" style="stroke: black;fill:none;"/><path d=" M 54 22 L 55 22 L 55 21 L 54 21z" style="stroke: black;fill:none;"/><path d=" M 54 28 L 53 28 L 53 29 L 54 29z" style="stroke: black;fill:none;"/><path d=" M 53 29 L 53 28z" style="stroke: black;fill:none;"/><path d=" M 54 34 L 54 35 L 55 35 L 55 34z" style="stroke: black;fill:none;"/><path d=" M 54 36 L 55 36 L 55 35 L 55 34 L 54 34z" style="stroke: black;fill:none;"/><path d=" M 54 40 L 54 41 L 55 41 L 55 40z" style="stroke: black;fill:none;"/><path d=" M 54 41 L 54 42 L 55 42 L 55 41z" style="stroke: black;fill:none;"/><path d=" M 54 42 L 54 43 L 55 43 L 55 42z" style="stroke: black;fill:none;"/><path d=" M 54 43 L 54 44 L 55 44 L 55 43z" style="stroke: black;fill:none;"/><path d=" M 54 44 L 54 45 L 55 45 L 55 44z" style="stroke: black;fill:none;"/><path d=" M 54 45 L 54 46 L 55 46 L 55 45z" style="stroke: black;fill:none;"/><path d=" M 54 47 L 54 48 L 55 48 L 55 49 L 56 49 L 56 50 L 57 50 L 57 51 L 58 51 L 58 52 L 59 52 L 59 53 L 59 54 L 60 54 L 60 55 L 61 55 L 62 55 L 62 56 L 62 57 L 62 58 L 63 58 L 63 59 L 63 60 L 64 60 L 64 61 L 64 62 L 64 63 L 65 63 L 65 64 L 65 65 L 66 65 L 66 66 L 66 67 L 66 68 L 66 69 L 67 69 L 67 70 L 67 71 L 67 72 L 67 73 L 67 74 L 67 75 L 68 75 L 69 75 L 70 75 L 71 75 L 72 75 L 72 74 L 72 73 L 72 72 L 72 71 L 72 70 L 72 69 L 72 68 L 72 67 L 72 66 L 72 65 L 72 64 L 72 63 L 72 62 L 72 61 L 72 60 L 71 60 L 71 59 L 71 58 L 70 58 L 70 57 L 69 57 L 69 56 L 69 55 L 68 55 L 68 54 L 67 54 L 67 53 L 67 52 L 67 51 L 66 51 L 66 50 L 65 50 L 65 49 L 64 49 L 64 48 L 63 48 L 63 47 L 62 47 L 62 46 L 61 46 L 61 45 L 60 45 L 59 45 L 58 45 L 57 45 L 56 45 L 55 45 L 55 44 L 54 44 L 54 43 L 55 43 L 55 42 L 55 41 L 55 40 L 54 40z" style="stroke: black;fill:none;"/><path d=" M 54 48 L 54 49 L 55 49 L 55 48z" style="stroke: black;fill:none;"/><path d=" M 54 57 L 54 56z" style="stroke: black;fill:none;"/><path d=" M 55 12 L 55 13 L 56 13 L 57 13 L 57 12 L 58 12 L 58 11 L 59 11 L 59 10 L 60 10 L 60 9 L 60 8 L 60 7 L 60 6 L 59 6z" style="stroke: black;fill:none;"/><path d=" M 55 13 L 55 14 L 56 14 L 57 14 L 57 13 L 57 12 L 58 12 L 59 12 L 59 11z" style="stroke: black;fill:none;"/><path d=" M 55 14 L 55 15 L 56 15 L 56 14z" style="stroke: black;fill:none;"/><path d=" M 55 16 L 55 17 L 56 17 L 56 16z" style="stroke: black;fill:none;"/><path d=" M 55 17 L 54 17 L 54 18 L 55 18z" style="stroke: black;fill:none;"/><path d=" M 55 18 L 55 19 L 56 19 L 57 19 L 57 18 L 56 18 L 56 17 L 55 17 L 55 16 L 55 15 L 55 14 L 55 13z" style="stroke: black;fill:none;"/><path d=" M 55 19 L 55 20 L 56 20 L 56 19z" style="stroke: black;fill:none;"/><path d=" M 55 20 L 55 21 L 56 21 L 56 20z" style="stroke: black;fill:none;"/><path d=" M 55 21 L 55 22 L 56 22 L 56 21z" style="stroke: black;fill:none;"/><path d=" M 55 22 L 55 23 L 56 23 L 56 22z" style="stroke: black;fill:none;"/><path d=" M 55 23 L 55 24 L 56 24 L 56 23z" style="stroke: black;fill:none;"/><path d=" M 55 24 L 56 24 L 56 23 L 55 23z" style="stroke: black;fill:none;"/><path d=" M 55 34 L 55 35 L 56 35 L 56 34z" style="stroke: black;fill:none;"/><path d=" M 55 35 L 55 36 L 56 36 L 56 35z" style="stroke: black;fill:none;"/><path d=" M 55 36 L 55 37 L 56 37 L 56 36z" style="stroke: black;fill:none;"/><path d=" M 55 37 L 55 38 L 56 38 L 56 37z" style="stroke: black;fill:none;"/><path d=" M 55 38 L 55 39 L 56 39 L 56 38z" style="stroke: black;fill:none;"/><path d=" M 55 39 L 55 40 L 56 40 L 56 39z" style="stroke: black;fill:none;"/><path d=" M 55 40 L 55 41 L 56 41 L 56 40z" style="stroke: black;fill:none;"/><path d=" M 55 42 L 55 43 L 56 43 L 56 42z" style="stroke: black;fill:none;"/><path d=" M 55 44 L 55 45 L 56 45 L 57 45 L 58 45 L 59 45 L 60 45 L 61 45 L 62 45 L 62 46 L 63 46 L 64 46 L 65 46 L 66 46 L 66 47 L 67 47 L 68 47 L 69 47 L 70 47 L 70 48 L 71 48 L 71 49 L 71 50 L 72 50 L 73 50 L 73 51 L 73 52 L 74 52 L 74 53 L 74 54 L 74 55 L 75 55 L 75 56 L 75 57 L 75 58 L 75 59 L 75 60 L 75 61 L 75 62 L 75 63 L 75 64 L 75 65 L 75 66 L 74 66 L 74 65 L 73 65 L 73 64 L 73 63 L 73 62 L 72 62 L 72 61 L 72 60 L 71 60 L 71 59 L 71 58 L 70 58 L 70 57 L 69 57 L 69 56 L 69 55 L 68 55 L 68 54 L 67 54 L 67 53 L 67 52 L 67 51 L 66 51 L 66 50 L 65 50 L 65 49 L 64 49 L 64 48 L 63 48 L 63 47 L 62 47 L 62 46 L 61 46 L 61 45 L 60 45 L 59 45 L 58 45 L 57 45 L 56 45 L 56 46 L 57 46 L 58 46 L 59 46 L 60 46 L 61 46 L 62 46 L 62 45z" style="stroke: black;fill:none;"/><path d=" M 55 46 L 55 47 L 56 47 L 57 47 L 57 46 L 56 46z" style="stroke: black;fill:none;"/><path d=" M 55 47 L 55 46 L 56 46 L 57 46 L 58 46 L 59 46 L 60 46 L 61 46 L 61 47 L 62 47 L 63 47 L 63 46 L 64 46 L 65 46 L 66 46 L 66 47 L 67 47 L 68 47 L 69 47 L 70 47 L 70 48 L 71 48 L 71 49 L 71 50 L 72 50 L 73 50 L 73 51 L 73 52 L 74 52 L 74 53 L 74 54 L 74 55 L 75 55 L 75 56 L 75 57 L 75 58 L 75 59 L 75 60 L 75 61 L 75 62 L 75 63 L 75 64 L 75 65 L 75 66 L 74 66 L 74 65 L 73 65 L 73 64 L 73 63 L 73 62 L 72 62 L 72 61 L 72 60 L 72 59 L 71 59 L 71 58 L 71 57 L 70 57 L 70 56 L 69 56 L 69 55 L 69 54 L 68 54 L 68 53 L 67 53 L 67 52 L 67 51 L 66 51 L 66 50 L 65 50 L 65 49 L 64 49 L 64 48 L 63 48 L 63 47 L 62 47 L 61 47 L 60 47 L 59 47 L 58 47 L 58 46 L 57 46 L 57 47 L 58 47 L 58 46 L 59 46 L 60 46z" style="stroke: black;fill:none;"/><path d=" M 55 49 L 55 50 L 56 50 L 56 49z" style="stroke: black;fill:none;"/><path d=" M 55 50 L 56 50 L 57 50 L 57 51 L 58 51 L 58 52 L 59 52 L 59 53 L 59 54 L 60 54 L 60 55 L 61 55 L 62 55 L 62 56 L 62 57 L 62 58 L 63 58 L 63 59 L 63 60 L 64 60 L 64 61 L 64 62 L 64 63 L 65 63 L 65 64 L 65 65 L 66 65 L 66 66 L 66 67 L 66 68 L 66 69 L 67 69 L 67 70 L 67 71 L 67 72 L 67 73 L 67 74 L 67 75 L 68 75 L 69 75 L 70 75 L 71 75 L 72 75 L 72 74 L 72 73 L 72 72 L 72 71 L 72 70 L 72 69 L 72 68 L 72 67 L 72 66 L 72 65 L 72 64 L 72 63z" style="stroke: black;fill:none;"/><path d=" M 56 14 L 56 15 L 57 15 L 57 14z" style="stroke: black;fill:none;"/><path d=" M 56 15 L 56 16 L 57 16 L 57 15z" style="stroke: black;fill:none;"/><path d=" M 56 16 L 55 16z" style="stroke: black;fill:none;"/><path d=" M 56 17 L 56 18 L 57 18 L 57 17z" style="stroke: black;fill:none;"/><path d=" M 56 18 L 55 18 L 55 19 L 56 19 L 57 19 L 57 18z" style="stroke: black;fill:none;"/><path d=" M 56 20 L 55 20z" style="stroke: black;fill:none;"/><path d=" M 56 21 L 56 22 L 57 22 L 57 21z" style="stroke: black;fill:none;"/><path d=" M 56 22 L 56 23 L 57 23 L 57 22z" style="stroke: black;fill:none;"/><path d=" M 56 24 L 56 25 L 57 25 L 57 24z" style="stroke: black;fill:none;"/><path d=" M 56 25 L 56 26 L 57 26 L 57 25z" style="stroke: black;fill:none;"/><path d=" M 56 26 L 56 27 L 57 27 L 57 26z" style="stroke: black;fill:none;"/><path d=" M 56 30 L 56 31 L 57 31 L 57 30z" style="stroke: black;fill:none;"/><path d=" M 56 31 L 56 32 L 57 32 L 57 31z" style="stroke: black;fill:none;"/><path d=" M 56 32 L 56 33 L 57 33 L 57 32z" style="stroke: black;fill:none;"/><path d=" M 55 33 L 55 34 L 56 34 L 56 33z" style="stroke: black;fill:none;"/><path d=" M 56 33 L 55 33z" style="stroke: black;fill:none;"/><path d=" M 56 34 L 56 35 L 57 35 L 57 34z" style="stroke: black;fill:none;"/><path d=" M 56 35 L 56 36 L 56 37 L 56 38 L 57 38 L 57 39 L 57 40 L 58 40 L 58 39 L 58 38 L 59 38 L 59 37 L 59 36 L 59 35 L 59 34 L 59 33 L 58 33 L 58 32 L 58 31 L 57 31 L 57 30 L 56 30 L 56 31 L 57 31 L 57 30 L 57 29 L 57 28 L 57 27 L 57 26 L 57 25 L 56 25 L 56 24 L 57 24 L 57 23 L 57 22 L 57 21 L 56 21 L 56 20 L 57 20 L 57 21z" style="stroke: black;fill:none;"/><path d=" M 56 38 L 55 38 L 55 37 L 55 36z" style="stroke: black;fill:none;"/><path d=" M 56 39 L 55 39z" style="stroke: black;fill:none;"/><path d=" M 56 40 L 56 41 L 57 41 L 57 40 L 57 39 L 56 39z" style="stroke: black;fill:none;"/><path d=" M 56 41 L 56 42 L 57 42 L 57 41z" style="stroke: black;fill:none;"/><path d=" M 56 42 L 56 43 L 57 43 L 57 42z" style="stroke: black;fill:none;"/><path d=" M 56 43 L 56 44z" style="stroke: black;fill:none;"/><path d=" M 56 44 L 56 43 L 56 42 L 56 41 L 57 41 L 57 40 L 57 39 L 57 38z" style="stroke: black;fill:none;"/><path d=" M 56 47 L 55 47 L 55 46z" style="stroke: black;fill:none;"/><path d=" M 56 50 L 56 51 L 57 51 L 57 52 L 57 53 L 58 53 L 58 52z" style="stroke: black;fill:none;"/><path d=" M 56 51 L 56 52 L 57 52 L 57 51z" style="stroke: black;fill:none;"/><path d=" M 56 53 L 56 54 L 55 54z" style="stroke: black;fill:none;"/><path d=" M 56 54 L 56 53 L 57 53 L 57 52z" style="stroke: black;fill:none;"/><path d=" M 57 13 L 57 14 L 58 14 L 58 13z" style="stroke: black;fill:none;"/><path d=" M 57 14 L 57 15 L 58 15 L 58 14z" style="stroke: black;fill:none;"/><path d=" M 57 15 L 56 15 L 56 16 L 57 16z" style="stroke: black;fill:none;"/><path d=" M 57 16 L 57 17 L 56 17z" style="stroke: black;fill:none;"/><path d=" M 57 23 L 57 24z" style="stroke: black;fill:none;"/><path d=" M 57 27 L 57 28 L 58 28 L 58 27z" style="stroke: black;fill:none;"/><path d=" M 57 30 L 58 30 L 58 29 L 57 29 L 57 28 L 57 27 L 58 27 L 58 26 L 58 25 L 58 24 L 59 24 L 59 23 L 59 22 L 59 21 L 59 20 L 59 19 L 59 18 L 59 17 L 59 16 L 58 16 L 58 15 L 58 14 L 58 13 L 58 12 L 59 12z" style="stroke: black;fill:none;"/><path d=" M 57 32 L 56 32 L 56 33 L 57 33z" style="stroke: black;fill:none;"/><path d=" M 57 33 L 57 34 L 57 35z" style="stroke: black;fill:none;"/><path d=" M 57 34 L 56 34z" style="stroke: black;fill:none;"/><path d=" M 57 41 L 57 42 L 58 42 L 58 41z" style="stroke: black;fill:none;"/><path d=" M 57 42 L 57 43z" style="stroke: black;fill:none;"/><path d=" M 57 47 L 58 47 L 59 47 L 60 47 L 61 47z" style="stroke: black;fill:none;"/><path d=" M 57 53 L 57 54 L 58 54 L 58 53z" style="stroke: black;fill:none;"/><path d=" M 57 65 L 58 65 L 58 66 L 59 66 L 59 67 L 60 67z" style="stroke: black;fill:none;"/><path d=" M 58 12 L 58 13 L 58 14 L 59 14 L 59 15 L 60 15 L 60 16 L 61 16 L 61 17 L 62 17 L 62 18 L 62 19 L 62 20 L 62 21 L 62 22 L 61 22 L 61 21 L 60 21 L 60 20 L 60 19 L 60 18 L 59 18 L 59 17 L 59 16 L 58 16 L 58 15 L 59 15 L 59 14z" style="stroke: black;fill:none;"/><path d=" M 58 15 L 59 15 L 60 15 L 60 16 L 61 16 L 61 17 L 62 17 L 62 18 L 62 19 L 62 20 L 62 21 L 62 22 L 61 22 L 61 21 L 60 21 L 60 20 L 60 19 L 60 18 L 59 18 L 59 17 L 59 16 L 59 15z" style="stroke: black;fill:none;"/><path d=" M 58 27 L 58 28 L 59 28 L 59 27z" style="stroke: black;fill:none;"/><path d=" M 58 28 L 58 29 L 58 30 L 58 31 L 59 31 L 60 31 L 60 32 L 59 32 L 59 31 L 58 31 L 58 30 L 58 29 L 57 29z" style="stroke: black;fill:none;"/><path d=" M 58 31 L 58 32 L 59 32 L 59 31z" style="stroke: black;fill:none;"/><path d=" M 58 40 L 58 41 L 59 41 L 59 40z" style="stroke: black;fill:none;"/><path d=" M 58 41 L 58 42z" style="stroke: black;fill:none;"/><path d=" M 58 53 L 57 53 L 57 54 L 58 54z" style="stroke: black;fill:none;"/><path d=" M 57 54 L 57 55 L 58 55 L 58 54z" style="stroke: black;fill:none;"/><path d=" M 58 54 L 58 55 L 59 55 L 59 54z" style="stroke: black;fill:none;"/><path d=" M 57 55 L 58 55 L 59 55 L 59 54 L 59 53 L 58 53z" style="stroke: black;fill:none;"/><path d=" M 58 55 L 58 56 L 59 56 L 59 55z" style="stroke: black;fill:none;"/><path d=" M 58 66 L 59 66 L 59 67 L 59 68 L 59 69 L 59 70 L 60 70 L 60 71 L 60 72 L 61 72 L 61 73 L 61 74 L 61 75 L 62 75 L 63 75 L 63 74 L 64 74 L 64 73 L 65 73 L 65 72 L 65 71 L 65 70 L 65 69 L 64 69 L 64 68 L 64 67 L 64 66 L 63 66 L 63 65 L 63 64 L 62 64 L 62 63 L 62 62 L 61 62 L 61 61 L 62 61 L 62 60 L 61 60 L 61 59 L 60 59 L 60 58 L 60 57 L 59 57 L 59 56 L 58 56z" style="stroke: black;fill:none;"/><path d=" M 58 69 L 58 70 L 59 70 L 59 69z" style="stroke: black;fill:none;"/><path d=" M 58 74 L 58 75 L 59 75 L 59 74z" style="stroke: black;fill:none;"/><path d=" M 59 16 L 60 16 L 60 17 L 61 17 L 61 18 L 62 18z" style="stroke: black;fill:none;"/><path d=" M 58 24 L 58 25 L 59 25 L 59 24z" style="stroke: black;fill:none;"/><path d=" M 59 24 L 59 25 L 60 25 L 60 24z" style="stroke: black;fill:none;"/><path d=" M 58 25 L 58 26 L 59 26 L 59 25z" style="stroke: black;fill:none;"/><path d=" M 59 25 L 59 26 L 60 26 L 60 25z" style="stroke: black;fill:none;"/><path d=" M 58 26 L 58 27 L 59 27 L 59 26z" style="stroke: black;fill:none;"/><path d=" M 59 26 L 59 27 L 59 28 L 58 28z" style="stroke: black;fill:none;"/><path d=" M 58 32 L 58 33 L 59 33 L 59 32z" style="stroke: black;fill:none;"/><path d=" M 59 32 L 59 33 L 60 33 L 61 33 L 61 34 L 61 35 L 62 35 L 62 36 L 62 37 L 61 37 L 61 36 L 60 36 L 60 35 L 59 35 L 59 34 L 59 33z" style="stroke: black;fill:none;"/><path d=" M 59 34 L 59 35 L 60 35 L 60 34z" style="stroke: black;fill:none;"/><path d=" M 58 38 L 58 39 L 59 39 L 59 38z" style="stroke: black;fill:none;"/><path d=" M 59 38 L 59 39 L 59 40 L 59 41 L 58 41 L 58 40 L 58 39 L 59 39z" style="stroke: black;fill:none;"/><path d=" M 59 40 L 58 40z" style="stroke: black;fill:none;"/><path d=" M 59 55 L 59 56 L 60 56 L 60 55z" style="stroke: black;fill:none;"/><path d=" M 59 56 L 59 57 L 60 57 L 60 56z" style="stroke: black;fill:none;"/><path d=" M 59 70 L 59 71 L 60 71 L 60 70z" style="stroke: black;fill:none;"/><path d=" M 59 71 L 59 72 L 60 72 L 60 71z" style="stroke: black;fill:none;"/><path d=" M 59 72 L 59 73 L 60 73 L 60 72z" style="stroke: black;fill:none;"/><path d=" M 59 74 L 59 75 L 60 75 L 60 74z" style="stroke: black;fill:none;"/><path d=" M 59 75 L 59 74 L 59 73 L 60 73 L 60 72 L 61 72 L 61 73 L 61 74 L 61 75 L 62 75 L 63 75 L 63 74 L 64 74 L 64 73 L 65 73 L 65 72 L 65 71 L 65 70 L 65 69 L 64 69 L 64 68 L 64 67 L 64 66 L 63 66 L 63 65 L 63 64 L 62 64 L 62 63 L 62 62 L 61 62 L 61 61 L 62 61 L 62 60 L 61 60 L 61 59 L 60 59 L 60 58 L 60 57 L 60 56 L 60 55 L 61 55 L 61 56 L 62 56 L 62 57 L 62 58 L 62 59 L 63 59 L 63 60 L 63 61 L 64 61 L 64 62 L 64 63 L 64 64 L 65 64 L 65 65 L 65 66 L 66 66 L 66 67 L 66 68 L 66 69 L 66 70 L 67 70 L 67 71 L 66 71 L 66 70 L 65 70 L 65 69 L 65 68 L 65 67 L 64 67 L 64 66 L 64 65 L 64 64 L 63 64 L 63 63 L 62 63 L 62 62 L 62 61 L 62 60 L 62 59 L 61 59 L 61 58 L 60 58 L 60 57 L 60 56 L 61 56 L 61 57 L 61 58 L 62 58 L 62 59 L 62 60 L 63 60 L 63 61 L 63 62 L 63 63 L 64 63 L 64 64 L 64 65 L 65 65 L 65 66 L 65 67 L 65 68 L 65 69 L 66 69 L 66 70 L 66 71 L 66 72 L 66 73 L 66 74 L 67 74 L 67 75 L 66 75 L 66 74 L 65 74 L 65 73 L 65 72 L 65 71 L 66 71 L 66 70z" style="stroke: black;fill:none;"/><path d=" M 60 4 L 61 4 L 61 3 L 62 3 L 62 2z" style="stroke: black;fill:none;"/><path d=" M 60 6 L 60 7 L 61 7 L 61 6z" style="stroke: black;fill:none;"/><path d=" M 60 7 L 60 8 L 61 8 L 61 7z" style="stroke: black;fill:none;"/><path d=" M 60 8 L 60 9 L 61 9 L 61 8z" style="stroke: black;fill:none;"/><path d=" M 60 16 L 60 17 L 61 17 L 61 18 L 61 19 L 61 20 L 61 21 L 62 21z" style="stroke: black;fill:none;"/><path d=" M 60 17 L 60 18 L 61 18 L 61 19 L 61 20 L 61 21 L 61 22 L 61 23 L 61 24 L 61 25 L 60 25 L 60 24 L 59 24 L 59 23 L 59 22 L 59 21 L 59 20 L 59 19z" style="stroke: black;fill:none;"/><path d=" M 60 18 L 60 19 L 61 19 L 61 18z" style="stroke: black;fill:none;"/><path d=" M 59 21 L 59 22 L 60 22 L 60 21z" style="stroke: black;fill:none;"/><path d=" M 60 21 L 60 22 L 61 22 L 61 23 L 61 24 L 61 25 L 60 25 L 60 24 L 60 23 L 59 23z" style="stroke: black;fill:none;"/><path d=" M 60 22 L 60 23 L 61 23 L 61 24 L 60 24 L 60 23z" style="stroke: black;fill:none;"/><path d=" M 60 31 L 60 32z" style="stroke: black;fill:none;"/><path d=" M 60 33 L 60 34 L 61 34 L 61 33z" style="stroke: black;fill:none;"/><path d=" M 60 34 L 60 35 L 61 35 L 61 34z" style="stroke: black;fill:none;"/><path d=" M 60 35 L 60 36 L 61 36 L 61 35z" style="stroke: black;fill:none;"/><path d=" M 59 36 L 59 37 L 60 37 L 60 36z" style="stroke: black;fill:none;"/><path d=" M 60 36 L 59 36 L 59 37 L 60 37z" style="stroke: black;fill:none;"/><path d=" M 60 37 L 60 38 L 61 38 L 61 37z" style="stroke: black;fill:none;"/><path d=" M 60 38 L 59 38z" style="stroke: black;fill:none;"/><path d=" M 59 73 L 59 74 L 60 74 L 60 73z" style="stroke: black;fill:none;"/><path d=" M 60 74 L 60 75 L 61 75 L 61 74z" style="stroke: black;fill:none;"/><path d=" M 60 75 L 60 74z" style="stroke: black;fill:none;"/><path d=" M 61 3 L 61 4z" style="stroke: black;fill:none;"/><path d=" M 61 9 L 61 10z" style="stroke: black;fill:none;"/><path d=" M 60 20 L 61 20z" style="stroke: black;fill:none;"/><path d=" M 61 35 L 61 36 L 61 37 L 62 37 L 62 36 L 62 35z" style="stroke: black;fill:none;"/><path d=" M 61 37 L 60 37 L 60 38 L 61 38z" style="stroke: black;fill:none;"/><path d=" M 61 56 L 61 57 L 61 58 L 61 59 L 62 59z" style="stroke: black;fill:none;"/><path d=" M 61 57 L 61 58z" style="stroke: black;fill:none;"/><path d=" M 62 61 L 62 62 L 63 62 L 63 61z" style="stroke: black;fill:none;"/><path d=" M 62 48 L 63 48 L 64 48 L 64 47 L 65 47 L 65 46z" style="stroke: black;fill:none;"/><path d=" M 63 61 L 63 62 L 63 63 L 63 64 L 64 64 L 64 65 L 64 66 L 65 66 L 65 67 L 65 68z" style="stroke: black;fill:none;"/><path d=" M 63 62 L 63 63z" style="stroke: black;fill:none;"/><path d=" M 63 75 L 64 75 L 64 74 L 65 74 L 66 74 L 66 73 L 66 72 L 66 71z" style="stroke: black;fill:none;"/><path d=" M 64 47 L 65 47 L 66 47 L 67 47 L 68 47 L 69 47 L 69 48 L 70 48 L 70 49 L 71 49 L 71 50 L 72 50 L 72 51 L 73 51 L 73 52 L 73 53 L 74 53 L 74 54 L 74 55 L 74 56 L 75 56z" style="stroke: black;fill:none;"/><path d=" M 63 49 L 64 49 L 65 49 L 65 48 L 66 48 L 66 47 L 65 47 L 64 47z" style="stroke: black;fill:none;"/><path d=" M 64 74 L 64 75 L 65 75 L 65 74z" style="stroke: black;fill:none;"/><path d=" M 64 75 L 65 75 L 65 74 L 66 74 L 66 75 L 65 75z" style="stroke: black;fill:none;"/><path d=" M 65 48 L 66 48 L 67 48 L 68 48 L 69 48 L 70 48 L 70 49 L 70 50 L 71 50 L 71 51 L 72 51 L 72 52 L 73 52 L 73 53 L 73 54 L 73 55 L 74 55 L 74 56 L 74 57 L 74 58 L 74 59 L 74 60 L 75 60z" style="stroke: black;fill:none;"/><path d=" M 64 50 L 65 50 L 66 50 L 66 49 L 66 48 L 65 48z" style="stroke: black;fill:none;"/><path d=" M 65 66 L 65 67z" style="stroke: black;fill:none;"/><path d=" M 66 48 L 66 49 L 67 49 L 67 48z" style="stroke: black;fill:none;"/><path d=" M 66 49 L 67 49 L 67 48 L 68 48 L 69 48 L 69 49 L 70 49 L 70 50 L 70 51 L 71 51 L 72 51 L 72 52z" style="stroke: black;fill:none;"/><path d=" M 67 48 L 67 49 L 67 50 L 68 50 L 68 49 L 68 48z" style="stroke: black;fill:none;"/><path d=" M 67 50 L 67 51 L 68 51 L 68 50z" style="stroke: black;fill:none;"/><path d=" M 68 48 L 68 49 L 69 49 L 69 48z" style="stroke: black;fill:none;"/><path d=" M 68 50 L 67 50z" style="stroke: black;fill:none;"/><path d=" M 68 51 L 68 52 L 69 52 L 69 51z" style="stroke: black;fill:none;"/><path d=" M 68 52 L 68 53 L 69 53 L 69 52z" style="stroke: black;fill:none;"/><path d=" M 68 53 L 68 54 L 69 54 L 69 53z" style="stroke: black;fill:none;"/><path d=" M 68 49 L 69 49 L 70 49 L 70 50 L 70 51 L 71 51 L 72 51z" style="stroke: black;fill:none;"/><path d=" M 69 49 L 69 50 L 70 50 L 70 51 L 70 52 L 71 52 L 71 53 L 72 53 L 72 54 L 73 54 L 73 53z" style="stroke: black;fill:none;"/><path d=" M 69 51 L 68 51 L 68 52 L 69 52z" style="stroke: black;fill:none;"/><path d=" M 69 52 L 68 52 L 68 51 L 69 51 L 69 50z" style="stroke: black;fill:none;"/><path d=" M 69 53 L 68 53z" style="stroke: black;fill:none;"/><path d=" M 69 54 L 69 55 L 70 55 L 70 54z" style="stroke: black;fill:none;"/><path d=" M 70 52 L 71 52 L 71 53 L 72 53 L 72 54 L 73 54 L 73 55 L 73 56 L 74 56 L 74 57 L 74 58 L 74 59 L 74 60 L 74 61 L 74 62 L 74 63 L 74 64 L 75 64 L 75 65 L 74 65 L 74 64 L 73 64 L 73 63 L 73 62 L 73 61 L 73 60 L 72 60 L 72 59 L 72 58 L 71 58 L 71 57 L 70 57 L 70 56 L 70 55 L 70 54 L 69 54z" style="stroke: black;fill:none;"/><path d=" M 70 54 L 70 55 L 70 56 L 71 56 L 71 55 L 71 54z" style="stroke: black;fill:none;"/><path d=" M 70 56 L 71 56 L 71 55 L 71 54 L 72 54 L 73 54 L 73 55 L 73 56 L 74 56 L 74 57 L 73 57 L 73 56z" style="stroke: black;fill:none;"/><path d=" M 71 56 L 71 57 L 72 57 L 72 56z" style="stroke: black;fill:none;"/><path d=" M 71 57 L 72 57 L 72 56 L 71 56z" style="stroke: black;fill:none;"/><path d=" M 72 57 L 72 58 L 73 58 L 73 57z" style="stroke: black;fill:none;"/><path d=" M 72 58 L 72 59 L 73 59 L 73 58z" style="stroke: black;fill:none;"/><path d=" M 72 59 L 73 59 L 73 58 L 72 58z" style="stroke: black;fill:none;"/><path d=" M 72 75 L 73 75 L 73 74 L 73 73 L 73 72 L 73 71 L 73 70 L 73 69 L 73 68 L 72 68z" style="stroke: black;fill:none;"/><path d=" M 73 59 L 73 60 L 74 60 L 74 61 L 74 62 L 74 63 L 74 64 L 74 65 L 74 66 L 74 67 L 75 67 L 75 68 L 75 69 L 75 70 L 75 71 L 75 72 L 76 72 L 77 72 L 77 71 L 78 71 L 79 71 L 80 71 L 80 70 L 81 70 L 82 70 L 82 69 L 83 69 L 83 68 L 84 68 L 84 67 L 85 67 L 85 66 L 86 66 L 86 65 L 87 65 L 87 66 L 86 66 L 86 65 L 87 65 L 87 66 L 86 66 L 85 66 L 85 67 L 86 67 L 86 66z" style="stroke: black;fill:none;"/><path d=" M 73 60 L 73 61 L 74 61 L 74 60z" style="stroke: black;fill:none;"/><path d=" M 72 65 L 72 66 L 73 66 L 73 65z" style="stroke: black;fill:none;"/><path d=" M 73 65 L 73 66 L 74 66 L 74 67 L 75 67 L 75 68 L 75 69 L 75 70 L 75 71 L 75 72 L 76 72 L 77 72 L 77 71 L 78 71 L 79 71 L 80 71 L 80 70 L 81 70 L 82 70 L 82 69 L 83 69 L 83 68 L 84 68 L 84 67 L 85 67 L 86 67z" style="stroke: black;fill:none;"/><path d=" M 73 66 L 73 67 L 74 67 L 74 68 L 74 69 L 74 70 L 74 71 L 74 72 L 74 73 L 75 73 L 76 73 L 76 72 L 77 72 L 78 72 L 78 71 L 79 71 L 80 71 L 81 71 L 81 70 L 82 70 L 82 71 L 81 71 L 80 71 L 80 72 L 79 72 L 78 72 L 77 72 L 77 73 L 78 73 L 78 72 L 79 72 L 80 72z" style="stroke: black;fill:none;"/><path d=" M 73 68 L 73 69 L 74 69 L 74 68z" style="stroke: black;fill:none;"/><path d=" M 73 75 L 73 74 L 73 73 L 73 72 L 73 71 L 73 70 L 73 69 L 73 68 L 73 67 L 73 66z" style="stroke: black;fill:none;"/><path d=" M 74 63 L 74 64z" style="stroke: black;fill:none;"/><path d=" M 73 67 L 73 68 L 74 68 L 74 67z" style="stroke: black;fill:none;"/><path d=" M 74 69 L 74 70 L 74 71 L 74 72 L 74 73 L 75 73 L 76 73 L 77 73 L 78 73 L 78 72 L 79 72z" style="stroke: black;fill:none;"/><path d=" M 73 71 L 74 71z" style="stroke: black;fill:none;"/><path d=" M 73 73 L 74 73 L 74 74 L 75 74 L 76 74 L 76 73 L 77 73z" style="stroke: black;fill:none;"/><path d=" M 74 73 L 74 74 L 75 74 L 76 74 L 76 73z" style="stroke: black;fill:none;"/><path d=" M 74 75 L 73 75z" style="stroke: black;fill:none;"/><path d=" M 74 74 L 74 75 L 75 75 L 75 74z" style="stroke: black;fill:none;"/><path d=" M 75 75 L 74 75z" style="stroke: black;fill:none;"/><path d=" M 76 75 L 75 75z" style="stroke: black;fill:none;"/><path d=" M 77 75 L 76 75z" style="stroke: black;fill:none;"/><path d=" M 78 75 L 77 75z" style="stroke: black;fill:none;"/><path d=" M 79 75 L 78 75z" style="stroke: black;fill:none;"/><path d=" M 80 75 L 79 75z" style="stroke: black;fill:none;"/><path d=" M 81 71 L 82 71z" style="stroke: black;fill:none;"/><path d=" M 81 75 L 80 75z" style="stroke: black;fill:none;"/><path d=" M 82 75 L 81 75z" style="stroke: black;fill:none;"/><path d=" M 83 75 L 82 75z" style="stroke: black;fill:none;"/><path d=" M 84 75 L 83 75z" style="stroke: black;fill:none;"/><path d=" M 85 75 L 84 75z" style="stroke: black;fill:none;"/><path d=" M 86 75 L 85 75z" style="stroke: black;fill:none;"/><path d=" M 87 75 L 86 75z" style="stroke: black;fill:none;"/><path d=" M 87 72 L 87 73 L 88 73 L 88 72z" style="stroke: black;fill:none;"/><path d=" M 88 72 L 87 72 L 87 73 L 88 73z" style="stroke: black;fill:none;"/><path d=" M 87 73 L 87 74 L 87 75 L 88 75 L 88 74 L 88 73z" style="stroke: black;fill:none;"/><path d=" M 88 73 L 88 74 L 89 74 L 89 73z" style="stroke: black;fill:none;"/><path d=" M 87 74 L 87 75 L 88 75 L 88 74 L 89 74 L 89 73 L 89 72 L 88 72z" style="stroke: black;fill:none;"/><path d=" M 88 75 L 89 75 L 89 74 L 89 73 L 89 72 L 89 71 L 89 70 L 89 69 L 90 69 L 90 68 L 90 67 L 91 67 L 92 67 L 93 67 L 93 68 L 94 68 L 94 67 L 94 66 L 94 65 L 95 65 L 95 66 L 95 67 L 95 68 L 95 69 L 95 70 L 95 71 L 95 72 L 96 72 L 96 73 L 97 73 L 97 74 L 97 75 L 96 75 L 96 74 L 95 74 L 95 73 L 94 73 L 94 72 L 93 72 L 93 71 L 92 71 L 91 71 L 91 70 L 90 70 L 90 71 L 91 71 L 91 70 L 90 70 L 90 71 L 91 71 L 91 70 L 90 70 L 90 71 L 91 71 L 92 71 L 93 71 L 93 70 L 92 70z" style="stroke: black;fill:none;"/><path d=" M 89 39 L 89 40 L 90 40 L 91 40 L 91 41 L 91 42 L 91 43 L 91 44 L 91 45 L 91 46 L 92 46 L 92 47 L 91 47 L 91 46 L 91 45 L 91 44 L 91 43 L 91 42 L 91 41 L 91 40 L 90 40 L 89 40z" style="stroke: black;fill:none;"/><path d=" M 89 72 L 89 73 L 90 73 L 90 72 L 91 72 L 91 73 L 91 74 L 90 74 L 90 73 L 90 72 L 91 72 L 91 73 L 91 74 L 90 74 L 90 73 L 90 72 L 91 72z" style="stroke: black;fill:none;"/><path d=" M 89 74 L 89 75 L 90 75 L 90 74z" style="stroke: black;fill:none;"/><path d=" M 89 75 L 90 75 L 90 74z" style="stroke: black;fill:none;"/><path d=" M 89 38 L 89 39 L 90 39 L 90 38z" style="stroke: black;fill:none;"/><path d=" M 90 38 L 89 38 L 89 39 L 90 39z" style="stroke: black;fill:none;"/><path d=" M 89 70 L 89 71z" style="stroke: black;fill:none;"/><path d=" M 90 75 L 91 75 L 92 75 L 93 75 L 94 75 L 94 74 L 93 74 L 93 73 L 93 72 L 92 72 L 92 71 L 93 71 L 93 70 L 93 69 L 92 69 L 91 69 L 91 68 L 91 67z" style="stroke: black;fill:none;"/><path d=" M 91 68 L 91 69 L 92 69 L 93 69 L 93 68 L 92 68z" style="stroke: black;fill:none;"/><path d=" M 91 75 L 92 75 L 93 75 L 94 75 L 94 74 L 93 74 L 93 73 L 93 72 L 92 72z" style="stroke: black;fill:none;"/><path d=" M 91 46 L 91 47 L 92 47 L 92 46z" style="stroke: black;fill:none;"/><path d=" M 92 68 L 91 68 L 91 69z" style="stroke: black;fill:none;"/><path d=" M 93 68 L 93 69 L 94 69 L 94 68z" style="stroke: black;fill:none;"/><path d=" M 93 69 L 93 70 L 94 70 L 94 69z" style="stroke: black;fill:none;"/><path d=" M 93 72 L 93 73 L 94 73 L 94 72z" style="stroke: black;fill:none;"/><path d=" M 94 68 L 94 69 L 94 70 L 95 70 L 95 71 L 95 72 L 95 73 L 96 73 L 96 74 L 96 75 L 95 75 L 95 74 L 94 74 L 94 73 L 94 72 L 94 71 L 94 70z" style="stroke: black;fill:none;"/><path d=" M 94 70 L 94 71z" style="stroke: black;fill:none;"/><path d=" M 94 73 L 94 74 L 95 74 L 95 73z" style="stroke: black;fill:none;"/><path d=" M 94 75 L 95 75 L 95 74 L 96 74 L 96 75 L 95 75z" style="stroke: black;fill:none;"/></svg>