
	<!DOCTYPE svg PUBLIC "-//W3C//DTD SVG 1.1//EN" "http://www.w3.org/Graphics/SVG/1.1/DTD/svg11.dtd">
	<svg width="100" height="100"
     xmlns="http://www.w3.org/2000/svg" version="1.1"><path d=" M 0 0 L 0 1 L 0 2 L 0 3 L 0 4 L 0 5 L 0 6 L 0 7 L 0 8 L 0 9 L 0 10 L 0 11 L 0 12 L 0 13 L 0 14 L 0 15 L 0 16 L 0 17 L 0 18 L 0 19 L 0 20 L 0 21 L 0 22 L 0 23 L 0 24 L 0 25 L 0 26 L 0 27 L 0 28 L 0 29 L 0 30 L 0 31 L 0 32 L 0 33 L 0 34 L 0 35 L 0 36 L 0 37 L 0 38 L 0 39 L 0 40 L 0 41 L 0 42 L 0 43 L 0 44 L 0 45 L 0 46 L 0 47 L 0 48 L 0 49 L 0 50 L 0 51 L 0 52 L 0 53 L 0 54 L 0 55 L 0 56 L 0 57 L 0 58 L 0 59 L 0 60 L 0 61 L 0 62 L 0 63 L 0 64 L 0 65 L 0 66 L 0 67 L 0 68 L 0 69 L 0 70 L 0 71 L 0 72 L 0 73 L 0 74 L 0 75 L 1 75 L 2 75 L 3 75 L 4 75 L 5 75 L 6 75 L 7 75 L 8 75 L 9 75 L 10 75 L 11 75 L 12 75 L 13 75 L 14 75 L 15 75 L 16 75 L 17 75 L 18 75 L 19 75 L 20 75 L 21 75 L 22 75 L 23 75 L 24 75 L 25 75 L 26 75 L 27 75 L 28 75 L 29 75 L 30 75 L 31 75 L 32 75 L 33 75 L 34 75 L 35 75 L 36 75 L 37 75 L 38 75 L 39 75 L 40 75 L 41 75 L 42 75 L 43 75 L 44 75 L 45 75 L 46 75 L 47 75 L 48 75 L 49 75 L 50 75 L 51 75 L 52 75 L 53 75 L 54 75 L 55 75 L 56 75 L 57 75 L 58 75 L 59 75 L 60 75 L 61 75 L 62 75 L 63 75 L 64 75 L 65 75 L 66 75 L 67 75 L 68 75 L 69 75 L 70 75 L 71 75 L 72 75 L 73 75 L 74 75 L 75 75 L 76 75 L 77 75 L 78 75 L 79 75 L 80 75 L 81 75 L 82 75 L 83 75 L 84 75 L 85 75 L 86 75 L 87 75 L 88 75 L 89 75 L 90 75 L 91 75 L 92 75 L 93 75 L 94 75 L 95 75 L 96 75 L 97 75 L 98 75 L 99 75 L 100 75 L 100 74 L 100 73 L 100 72 L 100 71 L 100 70 L 100 69 L 100 68 L 100 67 L 100 66 L 100 65 L 100 64 L 100 63 L 100 62 L 100 61 L 100 60 L 100 59 L 100 58 L 100 57 L 100 56 L 100 55 L 100 54 L 100 53 L 100 52 L 100 51 L 100 50 L 100 49 L 100 48 L 100 47 L 100 46 L 100 45 L 100 44 L 100 43 L 100 42 L 100 41 L 100 40 L 100 39 L 100 38 L 100 37 L 100 36 L 100 35 L 100 34 L 100 33 L 100 32 L 100 31 L 100 30 L 100 29 L 100 28 L 100 27 L 100 26 L 100 25 L 100 24 L 100 23 L 100 22 L 100 21 L 100 20 L 100 19 L 100 18 L 100 17 L 100 16 L 100 15 L 100 14 L 100 13 L 100 12 L 100 11 L 100 10 L 100 9 L 100 8 L 100 7 L 100 6 L 100 5 L 100 4 L 100 3 L 100 2 L 100 1 L 100 0 L 99 0 L 98 0 L 97 0 L 96 0 L 95 0 L 94 0 L 93 0 L 92 0 L 91 0 L 90 0 L 89 0 L 88 0 L 87 0 L 86 0 L 85 0 L 84 0 L 83 0 L 82 0 L 81 0 L 80 0 L 79 0 L 78 0 L 77 0 L 76 0 L 75 0 L 74 0 L 73 0 L 72 0 L 71 0 L 70 0 L 69 0 L 68 0 L 67 0 L 66 0 L 65 0 L 64 0 L 63 0 L 62 0 L 61 0 L 60 0 L 59 0 L 58 0 L 57 0 L 56 0 L 55 0 L 54 0 L 53 0 L 52 0 L 51 0 L 50 0 L 49 0 L 48 0 L 47 0 L 46 0 L 45 0 L 44 0 L 43 0 L 42 0 L 41 0 L 40 0 L 39 0 L 38 0 L 37 0 L 36 0 L 35 0 L 34 0 L 33 0 L 32 0 L 31 0 L 30 0 L 29 0 L 28 0 L 27 0 L 26 0 L 25 0 L 24 0 L 23 0 L 22 0 L 21 0 L 20 0 L 19 0 L 18 0 L 17 0 L 16 0 L 15 0 L 14 0 L 13 0 L 12 0 L 11 0 L 10 0 L 9 0 L 8 0 L 7 0 L 6 0 L 5 0 L 4 0 L 3 0 L 2 0 L 1 0z" style="stroke: black;fill:none;"/><path d=" M 24 56 L 24 57 L 25 57 L 25 56z" style="stroke: black;fill:none;"/><path d=" M 25 56 L 24 56 L 24 57 L 25 57z" style="stroke: black;fill:none;"/><path d=" M 25 33 L 25 34 L 26 34 L 26 33z" style="stroke: black;fill:none;"/><path d=" M 26 33 L 25 33 L 25 34 L 26 34z" style="stroke: black;fill:none;"/><path d=" M 26 34 L 26 35 L 27 35 L 27 34z" style="stroke: black;fill:none;"/><path d=" M 27 34 L 26 34 L 26 35 L 27 35z" style="stroke: black;fill:none;"/><path d=" M 27 35 L 27 36 L 28 36 L 28 37 L 28 38 L 28 39 L 28 40 L 28 41 L 28 42 L 29 42 L 29 43 L 29 44 L 30 44 L 30 45 L 30 46 L 31 46 L 31 47 L 32 47 L 33 47 L 33 48 L 34 48 L 34 47 L 35 47 L 35 48 L 35 49 L 34 49 L 34 50 L 33 50 L 32 50 L 32 51 L 33 51 L 33 50 L 32 50 L 32 51 L 33 51 L 33 50 L 34 50 L 34 49 L 35 49 L 35 48 L 35 47 L 34 47 L 34 48 L 33 48 L 33 47 L 32 47 L 31 47 L 31 46 L 30 46 L 30 45 L 29 45 L 29 44 L 29 43 L 28 43 L 27 43 L 27 42 L 27 41 L 28 41 L 28 40 L 28 39 L 28 38 L 28 37 L 27 37 L 27 36z" style="stroke: black;fill:none;"/><path d=" M 27 36 L 27 37 L 28 37 L 28 36z" style="stroke: black;fill:none;"/><path d=" M 27 41 L 27 42 L 27 43 L 28 43 L 29 43 L 29 42 L 28 42 L 28 41z" style="stroke: black;fill:none;"/><path d=" M 29 44 L 29 45 L 30 45 L 30 44z" style="stroke: black;fill:none;"/><path d=" M 30 52 L 30 53 L 31 53 L 31 52z" style="stroke: black;fill:none;"/><path d=" M 31 52 L 30 52 L 30 53 L 31 53z" style="stroke: black;fill:none;"/><path d=" M 31 51 L 31 52 L 32 52 L 32 51z" style="stroke: black;fill:none;"/><path d=" M 32 51 L 31 51 L 31 52 L 32 52z" style="stroke: black;fill:none;"/><path d=" M 35 27 L 35 28 L 36 28 L 36 27z" style="stroke: black;fill:none;"/><path d=" M 36 27 L 35 27 L 35 28 L 36 28z" style="stroke: black;fill:none;"/><path d=" M 36 8 L 36 9 L 37 9 L 37 8z" style="stroke: black;fill:none;"/><path d=" M 37 8 L 37 9 L 38 9 L 38 8z" style="stroke: black;fill:none;"/><path d=" M 38 7 L 38 8 L 39 8 L 39 7z" style="stroke: black;fill:none;"/><path d=" M 40 6 L 40 7 L 41 7 L 41 6z" style="stroke: black;fill:none;"/><path d=" M 41 5 L 41 6 L 42 6 L 42 5z" style="stroke: black;fill:none;"/><path d=" M 42 4 L 42 5 L 43 5 L 43 4z" style="stroke: black;fill:none;"/><path d=" M 44 23 L 44 24 L 45 24 L 46 24 L 46 23 L 45 23z" style="stroke: black;fill:none;"/><path d=" M 45 19 L 45 20 L 45 21 L 46 21 L 46 22 L 46 23 L 46 24 L 45 24 L 44 24 L 44 23 L 45 23 L 46 23 L 46 22 L 46 21 L 45 21 L 45 20z" style="stroke: black;fill:none;"/><path d=" M 45 14 L 45 15 L 46 15 L 46 14z" style="stroke: black;fill:none;"/><path d=" M 46 14 L 45 14 L 45 15 L 46 15z" style="stroke: black;fill:none;"/><path d=" M 46 15 L 46 16 L 47 16 L 48 16 L 48 15 L 48 14 L 47 14 L 46 14 L 46 13 L 47 13 L 48 13 L 48 14 L 48 15 L 48 16 L 48 17 L 49 17 L 50 17 L 50 16 L 50 15 L 50 14 L 50 13 L 51 13 L 51 12 L 52 12 L 53 12 L 54 12 L 54 13 L 55 13 L 55 14 L 56 14 L 56 15 L 56 16 L 56 17 L 56 18 L 55 18 L 54 18 L 54 17 L 53 17 L 52 17 L 52 18 L 53 18 L 53 19 L 52 19 L 52 18 L 51 18 L 50 18 L 50 17 L 49 17 L 48 17 L 48 16 L 47 16 L 46 16z" style="stroke: black;fill:none;"/><path d=" M 46 13 L 46 14 L 47 14 L 48 14 L 48 13 L 47 13z" style="stroke: black;fill:none;"/><path d=" M 50 17 L 50 18 L 51 18 L 52 18 L 52 17 L 53 17 L 54 17 L 55 17 L 55 16 L 55 15 L 55 14 L 55 13 L 54 13 L 54 12 L 53 12 L 52 12 L 51 12 L 51 13 L 51 14 L 50 14 L 50 13 L 51 13 L 51 14 L 50 14 L 50 15 L 50 16z" style="stroke: black;fill:none;"/><path d=" M 52 18 L 52 19 L 53 19 L 53 18z" style="stroke: black;fill:none;"/><path d=" M 52 41 L 52 42 L 53 42 L 53 41z" style="stroke: black;fill:none;"/><path d=" M 53 41 L 52 41 L 52 42 L 53 42z" style="stroke: black;fill:none;"/><path d=" M 54 17 L 54 18 L 55 18 L 56 18 L 56 17 L 56 16 L 56 15 L 56 14 L 55 14 L 55 15 L 55 16 L 55 17z" style="stroke: black;fill:none;"/><path d=" M 53 23 L 53 24 L 54 24 L 54 23z" style="stroke: black;fill:none;"/><path d=" M 54 23 L 53 23 L 53 24 L 54 24z" style="stroke: black;fill:none;"/><path d=" M 53 40 L 53 41 L 54 41 L 54 40z" style="stroke: black;fill:none;"/><path d=" M 54 40 L 53 40 L 53 41 L 54 41z" style="stroke: black;fill:none;"/><path d=" M 54 21 L 54 22 L 54 23 L 55 23 L 55 22 L 55 21z" style="stroke: black;fill:none;"/><path d=" M 55 21 L 54 21 L 54 22 L 54 23 L 55 23 L 55 22z" style="stroke: black;fill:none;"/><path d=" M 54 38 L 54 39 L 55 39 L 55 38z" style="stroke: black;fill:none;"/><path d=" M 55 38 L 54 38 L 54 39 L 55 39z" style="stroke: black;fill:none;"/><path d=" M 59 6 L 59 7 L 60 7 L 60 6z" style="stroke: black;fill:none;"/></svg>